<svg width="213" height="113" viewBox="0 0 213 113" fill="none" xmlns="http://www.w3.org/2000/svg">
<g clip-path="url(#clip0)">
<path d="M196.606 89.3553C196.369 89.8651 196.133 90.3681 195.897 90.8643C195.529 91.635 195.165 92.3909 194.807 93.1317C194.647 93.46 194.488 93.7822 194.332 94.1044C192.574 97.687 190.932 100.856 189.537 103.462C188.272 105.823 186.393 107.801 184.097 109.19C181.802 110.578 179.174 111.325 176.489 111.353L145.479 111.689H145.152L142.494 111.718L140.22 111.742L133.247 111.818H132.965L129.415 111.857H129.307L107.427 112.093L87.8972 112.297L85.6254 112.322L71.516 112.475H71.4997L62.3491 112.572H62.2509L33.3166 112.884L24.6609 112.978C23.9238 112.987 23.187 112.95 22.4545 112.868C22.205 112.84 21.9556 112.807 21.7081 112.768C17.6712 112.147 13.9697 110.165 11.2202 107.153C7.49658 103.068 4.78718 98.3029 2.96729 93.1317C2.70419 92.3854 2.45881 91.6296 2.23115 90.8643C-4.06896 69.6272 3.61141 42.228 17.4344 23.8925C18.0138 23.1258 18.6027 22.3782 19.2012 21.6495L19.2155 21.6332C23.4667 16.4295 28.2332 12.0822 33.3105 8.9909C42.3077 3.50372 52.2763 1.9581 62.0812 6.56439C70.3771 10.4631 78.1229 12.2963 85.6315 12.7938C86.3901 12.8427 87.1488 12.8794 87.9033 12.9019C105.127 13.4422 121.269 7.2536 140.224 3.25903C140.979 3.09998 141.735 2.94297 142.498 2.79412C156.021 0.110682 171.021 -1.30444 188.861 1.67058C190.714 1.9725 192.543 2.40866 194.332 2.9756C195.119 3.22844 195.877 3.50032 196.606 3.79123C205.121 7.24544 209.765 13.6278 211.738 21.6251C211.925 22.3673 212.086 23.1224 212.223 23.8905C215.721 43.1272 205.475 70.4143 196.606 89.3553Z" fill="#F2F2F2"/>
<path opacity="0.1" d="M101.632 90.8637C101.55 91.6264 101.422 92.3836 101.25 93.1312H120.41V90.8637H101.632ZM85.6314 103.671L87.9032 103.653V98.0515C87.1241 98.0169 86.3654 97.9822 85.6314 97.9455V103.671ZM38.0033 90.8637V93.1312H78.5931V90.8637H38.0033ZM211.748 21.6327H196.616V3.79274C195.887 3.49776 195.129 3.22588 194.343 2.97711V21.6327H142.498V2.78748C141.735 2.93633 140.979 3.09334 140.224 3.25239V21.6327H87.9032V12.8952C87.1486 12.8728 86.39 12.8361 85.6314 12.7872V21.6327H33.3104V8.99037C28.2331 12.0816 23.4666 16.429 19.2154 21.6327H19.2011V21.649C18.6013 22.3831 18.0123 23.1308 17.4343 23.892H19.2011V90.8637H2.229C2.4553 91.6291 2.70068 92.3849 2.96514 93.1312H19.199V112.221C20.0158 112.47 20.8495 112.66 21.6937 112.79C21.9411 112.829 22.1906 112.861 22.4401 112.89C23.1726 112.972 23.9094 113.008 24.6464 113L33.3022 112.906V93.1271H85.6314V112.337L87.9032 112.313V93.1312H140.224V111.76L142.498 111.736V93.1312H194.332V94.1038C194.488 93.7817 194.647 93.4595 194.807 93.1312C195.165 92.3903 195.529 91.6345 195.897 90.8637C196.132 90.3689 196.369 89.8659 196.606 89.3548V23.9002H212.233C212.095 23.1267 211.934 22.3709 211.748 21.6327ZM33.3104 90.8637V23.892H85.6314V90.8637H33.3104ZM87.9072 90.8637V23.892H140.224V90.8637H87.9072ZM194.336 90.8637H142.498V23.892H194.332L194.336 90.8637Z" fill="black"/>
<path d="M176.487 108.816V111.467L145.422 111.752L145.091 111.758L133.284 111.866L133.002 111.87L129.413 111.901H129.307L107.431 112.103L71.5217 112.435H71.491L62.3609 112.521L62.2627 112.523L21.6934 112.894V109.835L31.2325 104.126L50.3721 103.967L50.781 103.965L50.916 103.963L51.325 103.957L60.5144 103.881L60.9254 103.879L61.0563 103.877L61.4653 103.875L64.4119 103.851L64.4896 103.849L71.7589 103.787H71.8182L128.542 103.31L129.93 103.3H130.069L131.128 103.29L138.827 103.227L139.236 103.221L139.614 103.216H139.811L142.205 103.198L142.68 103.192L143.316 103.188L145.309 103.17L148.473 103.143L148.882 103.139L149.593 103.135H149.726L165.003 103.004L176.487 108.816Z" fill="#65617D"/>
<path opacity="0.2" d="M176.487 108.816V111.467L145.422 111.752L145.091 111.758L133.284 111.866L133.002 111.87L129.413 111.901H129.307L107.431 112.103L71.5217 112.435H71.491L62.3609 112.521L62.2627 112.523L21.6934 112.894V109.835L31.2325 104.126L50.3721 103.967L50.781 103.965L50.916 103.963L51.325 103.957L60.5144 103.881L60.9254 103.879L61.0563 103.877L61.4653 103.875L64.4119 103.851L64.4896 103.849L71.7589 103.787H71.8182L128.542 103.31L129.93 103.3H130.069L131.128 103.29L138.827 103.227L139.236 103.221L139.614 103.216H139.811L142.205 103.198L142.68 103.192L143.316 103.188L145.309 103.17L148.473 103.143L148.882 103.139L149.593 103.135H149.726L165.003 103.004L176.487 108.816Z" fill="black"/>
<path d="M60.5473 98.6224V103.616C60.5474 103.853 60.4802 104.084 60.3535 104.284C60.2269 104.484 60.0459 104.644 59.8316 104.746C59.6721 104.823 59.4977 104.865 59.3204 104.868L52.184 105.019C51.9934 105.024 51.8043 104.984 51.6319 104.903C51.4138 104.803 51.2291 104.643 51.0997 104.442C50.9703 104.24 50.9016 104.006 50.9019 103.767V98.6224H60.5473Z" fill="#3F3D56"/>
<path opacity="0.1" d="M60.5473 98.6224V103.616C60.5474 103.853 60.4802 104.084 60.3535 104.284C60.2269 104.484 60.0459 104.644 59.8316 104.746C59.6721 104.823 59.4977 104.865 59.3204 104.868L52.184 105.019C51.9934 105.024 51.8043 104.984 51.6319 104.903C51.4138 104.803 51.2291 104.643 51.0997 104.442C50.9703 104.24 50.9016 104.006 50.9019 103.767V98.6224H60.5473Z" fill="black"/>
<path d="M60.9565 98.6224V103.616C60.9566 103.853 60.8894 104.084 60.7627 104.284C60.636 104.484 60.4551 104.644 60.2408 104.746C60.0813 104.823 59.9069 104.865 59.7296 104.868L52.5931 105.019C52.4026 105.024 52.2135 104.984 52.041 104.903C51.823 104.803 51.6383 104.643 51.5089 104.442C51.3795 104.24 51.3108 104.006 51.311 103.767V98.6224H60.9565Z" fill="#3F3D56"/>
<path d="M148.882 98.6204H139.236V105.044H148.882V98.6204Z" fill="#3F3D56"/>
<path opacity="0.1" d="M148.882 98.6204H139.236V105.044H148.882V98.6204Z" fill="black"/>
<path d="M148.473 98.6204H138.828V105.044H148.473V98.6204Z" fill="#3F3D56"/>
<path opacity="0.1" d="M60.954 98.6204V99.6338L51.3086 99.8907V98.6204H60.954Z" fill="black"/>
<path d="M77.9794 63.6929V97.9903C77.9769 98.1997 77.8938 98.4 77.7472 98.55C77.6007 98.6999 77.4019 98.7879 77.1921 98.7957L38.003 99.8357H37.9928C37.7794 99.833 37.5755 99.7473 37.4246 99.5969C37.2737 99.4464 37.1877 99.243 37.1851 99.0302V63.6929C37.1877 63.4801 37.2737 63.2768 37.4246 63.1263C37.5755 62.9758 37.7794 62.8901 37.9928 62.8875H77.1717C77.385 62.8901 77.589 62.9758 77.7399 63.1263C77.8908 63.2768 77.9767 63.4801 77.9794 63.6929Z" fill="#65617D"/>
<path opacity="0.1" d="M38.003 62.8875V99.8357H37.9928C37.7794 99.833 37.5755 99.7473 37.4246 99.5969C37.2737 99.4464 37.1877 99.243 37.1851 99.0302V63.6929C37.1877 63.4801 37.2737 63.2768 37.4246 63.1263C37.5755 62.9758 37.7794 62.8901 37.9928 62.8875H38.003Z" fill="black"/>
<path d="M39.7905 65.0774H76.0862V95.3068L39.7905 96.1224V65.0774Z" fill="#F0810F"/>
<path opacity="0.1" d="M148.473 98.6204V99.9274L138.828 99.6705V98.6204H148.473Z" fill="black"/>
<path d="M161.204 63.6929V99.0302C161.201 99.2448 161.114 99.4496 160.961 99.6004C160.808 99.7512 160.601 99.8357 160.386 99.8357L121.189 98.7957C120.979 98.7879 120.78 98.6999 120.634 98.55C120.487 98.4 120.404 98.1997 120.401 97.9903V63.6929C120.404 63.4801 120.49 63.2768 120.641 63.1263C120.792 62.9758 120.996 62.8901 121.209 62.8875H160.388C160.603 62.888 160.809 62.9727 160.961 63.1234C161.114 63.2742 161.201 63.4787 161.204 63.6929Z" fill="#65617D"/>
<path opacity="0.1" d="M161.204 63.6929V99.0302C161.201 99.2448 161.114 99.4496 160.961 99.6004C160.808 99.7512 160.601 99.8357 160.386 99.8357V62.8875C160.601 62.8874 160.808 62.972 160.961 63.1227C161.114 63.2735 161.201 63.4783 161.204 63.6929Z" fill="black"/>
<path d="M158.595 65.0774H122.299V95.3068L158.595 96.1224V65.0774Z" fill="#F0810F"/>
<path d="M119.387 63.6929V97.9903C119.385 98.1997 119.301 98.4 119.155 98.55C119.008 98.6999 118.81 98.7879 118.6 98.7957L79.4107 99.8357C79.1955 99.8357 78.989 99.7512 78.8359 99.6004C78.6828 99.4496 78.5955 99.2448 78.5928 99.0302V63.6929C78.5954 63.4801 78.6814 63.2768 78.8323 63.1263C78.9832 62.9758 79.1871 62.8901 79.4005 62.8875H118.579C118.793 62.8901 118.997 62.9758 119.148 63.1263C119.298 63.2768 119.384 63.4801 119.387 63.6929Z" fill="#65617D"/>
<path d="M81.1982 65.0774H117.494V95.3068L81.1982 96.1224V65.0774Z" fill="#F0810F"/>
<path opacity="0.1" d="M176.487 108.816V111.467L145.422 111.752L145.091 111.758L133.284 111.866L133.002 111.87L129.413 111.901H129.307L107.431 112.103L71.5217 112.435H71.491L62.3609 112.521L62.2627 112.523L21.6934 112.894V109.835L63.1032 109.564H63.2013L71.5831 109.507H71.6219L129.507 109.126H129.566L129.601 109.124H129.697L130.677 109.118H130.975L146.207 109.016L147.107 109.012L147.307 109.009L176.487 108.816Z" fill="black"/>
<path d="M99.6362 71.2619C105.433 71.2619 110.132 66.5758 110.132 60.7952C110.132 55.0147 105.433 50.3286 99.6362 50.3286C93.8394 50.3286 89.1401 55.0147 89.1401 60.7952C89.1401 66.5758 93.8394 71.2619 99.6362 71.2619Z" fill="#FBBEBE"/>
<path d="M110.134 76.9061C110.134 76.9061 89.7883 79.3531 91.7308 76.9061C92.4343 76.0212 92.6285 73.3989 92.5897 70.4116C92.5774 69.5043 92.5447 68.5642 92.4977 67.6283C92.2727 63.1423 91.7308 58.7583 91.7308 58.7583C91.7308 58.7583 109.521 50.398 107.476 57.0251C106.658 59.7024 106.926 63.4625 107.548 66.9921C107.73 68.0218 107.94 69.0312 108.161 69.9896C108.7 72.3272 109.359 74.6357 110.134 76.9061Z" fill="#FBBEBE"/>
<path d="M103.495 76.0763C105.849 75.6419 108.341 74.8528 110.556 75.7623C111.139 76.0008 111.674 76.3495 112.271 76.5493C112.868 76.7492 113.523 76.7981 114.144 76.9388C116.328 77.4323 118.099 79.09 119.236 81.017C120.373 82.9439 120.962 85.1237 121.539 87.281L122.949 92.548C124.176 97.1257 125.403 101.742 125.687 106.475C108.606 107.45 91.4862 107.547 74.395 106.767C75.5074 104.658 76.6443 102.421 76.5503 100.038C76.4562 97.6539 75.08 95.3028 75.5769 92.9538C75.8939 91.4571 76.9204 90.2234 77.5481 88.8307C79.3374 84.8505 77.9448 79.4938 81.0898 76.4637C82.5048 75.1016 84.566 74.5857 86.5352 74.651C89.0462 74.7346 91.6166 75.5155 94.101 75.8968C97.2828 76.3781 100.289 76.6635 103.495 76.0763Z" fill="#FF6584"/>
<path opacity="0.1" d="M130.262 98.7448L130.241 99.0364V99.0568L130.206 99.5258L129.934 103.3L129.605 107.847L129.511 109.128L129.307 111.868V111.903L107.427 112.107L71.5218 112.494V112.666H71.4932V112.494V112.437L71.5852 109.509L71.761 103.787L71.9124 98.9365L71.9267 98.4532C71.9356 98.1615 72.0041 97.8747 72.1279 97.6103C72.2517 97.3459 72.4283 97.1094 72.6469 96.9154C72.8654 96.7213 73.1213 96.5737 73.399 96.4815C73.6767 96.3894 73.9703 96.3547 74.2619 96.3795C75.227 96.461 76.4805 96.5609 77.9794 96.667L78.5928 96.7118C87.2486 97.3113 103.245 98.0862 119.387 97.1197C119.727 97.1013 120.068 97.0809 120.41 97.0565C122.912 96.8994 125.413 96.6976 127.89 96.4447C128.203 96.412 128.519 96.4481 128.817 96.5506C129.114 96.653 129.385 96.8192 129.612 97.0375C129.838 97.2558 130.013 97.5209 130.125 97.8141C130.238 98.1074 130.284 98.4216 130.262 98.7346V98.7448Z" fill="black"/>
<path d="M71.5156 112.666V112.494L107.427 112.105L129.307 111.901H129.368V111.866L129.572 109.126L129.66 107.902L129.996 103.292L130.259 99.642V99.5523C130.272 99.3841 130.264 99.2151 130.237 99.0486C130.238 99.0419 130.238 99.035 130.237 99.0282C130.181 98.6841 130.04 98.3591 129.828 98.0821C129.603 97.7942 129.308 97.5682 128.971 97.4255C128.634 97.2828 128.266 97.2281 127.902 97.2665C125.425 97.5193 122.925 97.7212 120.422 97.8782C120.08 97.9027 119.739 97.9231 119.399 97.9414C103.257 98.8977 87.2608 98.1229 78.605 97.5336L77.9916 97.4887C76.4927 97.3827 75.2393 97.2848 74.2741 97.2012C73.7432 97.1565 73.2144 97.3096 72.79 97.6308C72.3655 97.952 72.0754 98.4186 71.9757 98.9406C71.9551 99.051 71.9428 99.1627 71.9389 99.275L71.7999 103.794L71.6097 109.517L71.5197 112.445V112.503V112.674L71.5156 112.666Z" fill="#3F3D56"/>
<path opacity="0.1" d="M130.323 100.174L130.072 103.3L129.697 107.959L129.603 109.126L129.399 111.738L129.387 111.868V111.903L129.356 112.205L129.378 111.903H129.319L107.439 112.107L71.522 112.494V112.437L71.6222 109.509L71.8267 103.787L71.9575 99.9844C71.964 99.7681 72.0246 99.5568 72.1339 99.3698C72.2432 99.1829 72.3976 99.0261 72.5832 98.9139C72.8148 98.7724 73.0855 98.7081 73.3562 98.7304C73.7856 98.7651 74.3132 98.8058 74.9287 98.8507C75.9286 98.9241 77.1616 99.0097 78.5971 99.0995C81.2554 99.2667 84.5905 99.4461 88.4122 99.5929C99.0453 100.001 113.4 100.137 127.035 98.9465C127.648 98.8935 128.282 98.8344 128.902 98.7753C129.147 98.7509 129.394 98.7976 129.613 98.9098C129.676 98.9407 129.734 98.9776 129.789 99.02C129.967 99.1486 130.108 99.3215 130.198 99.5216C130.219 99.5614 130.236 99.603 130.249 99.646C130.311 99.8149 130.336 99.9948 130.323 100.174Z" fill="black"/>
<path opacity="0.1" d="M60.9565 102.966V103.616C60.9566 103.853 60.8894 104.084 60.7627 104.284C60.636 104.484 60.4551 104.644 60.2408 104.746L52.041 104.903C51.823 104.803 51.6383 104.643 51.5089 104.442C51.3795 104.24 51.3108 104.006 51.311 103.767V103.155L60.9565 102.966Z" fill="black"/>
<path d="M61.0563 105.129L50.3721 105.333V103.565L61.0563 103.361V105.129Z" fill="#3F3D56"/>
<path opacity="0.1" d="M61.0563 105.129L50.3721 105.333V103.565L61.0563 103.361V105.129Z" fill="black"/>
<path d="M61.4655 105.129L50.7812 105.333V103.565L61.4655 103.361V105.129Z" fill="#3F3D56"/>
<path opacity="0.1" d="M138.889 103.374V104.024C138.889 104.261 138.956 104.492 139.082 104.692C139.209 104.892 139.39 105.052 139.604 105.154L147.804 105.311C148.022 105.211 148.207 105.051 148.336 104.85C148.466 104.648 148.534 104.414 148.534 104.175V103.563L138.889 103.374Z" fill="black"/>
<path opacity="0.1" d="M138.787 105.537L149.471 105.741V103.973L138.787 103.769V105.537Z" fill="black"/>
<path d="M138.377 105.537L149.062 105.741V103.973L138.377 103.769V105.537Z" fill="#3F3D56"/>
<path d="M92.9965 64.0028C93.0129 65.4301 92.3504 66.7759 91.788 68.0952C89.7406 72.901 88.8539 78.1191 89.1993 83.3292C89.3486 85.5722 89.7268 87.8152 89.3485 90.0378C88.9703 92.2604 87.6248 94.4769 85.4634 95.1151C89.048 97.246 93.9003 97.0217 97.2743 94.5728C99.0717 93.2677 100.411 91.4468 101.722 89.6565C101.566 92.8726 100.632 96.0033 99.0001 98.7814C101.95 98.5209 104.813 97.6454 107.402 96.2116C109.992 94.7777 112.25 92.8175 114.032 90.4579C114.913 89.2732 115.68 87.9722 116.019 86.5367C116.651 83.8859 115.77 81.1311 115.097 78.4823C114.535 76.268 114.113 74.0206 113.835 71.7533C113.747 71.0274 113.676 70.2811 113.856 69.5715C114.06 68.7416 114.606 68.0402 115.009 67.2837C116.154 65.1345 116.181 62.5326 115.594 60.1713C115.007 57.8101 113.858 55.6323 112.719 53.4811C111.807 51.756 110.817 49.9514 109.149 48.938C108.106 48.3059 106.899 48.0429 105.697 47.788L100.509 46.6807C99.3743 46.4381 98.2068 46.1954 97.0596 46.3728C95.1231 46.6746 93.7592 48.0694 92.561 49.5008C91.6224 50.6141 89.3281 52.7042 89.1666 54.1621C89.0193 55.5059 90.2094 57.7571 90.4119 59.1742C90.6777 61.0094 90.8658 60.3977 91.9046 61.5232C92.561 62.2206 92.9843 63.0261 92.9965 64.0028Z" fill="#3F3D56"/>
<path d="M61.3979 68.0219H41.0314C41.0043 68.0219 40.9783 68.0111 40.9591 67.992C40.94 67.9729 40.9292 67.947 40.9292 67.9199C40.9292 67.8929 40.94 67.867 40.9591 67.8479C40.9783 67.8287 41.0043 67.818 41.0314 67.818H61.3979C61.425 67.818 61.451 67.8287 61.4702 67.8479C61.4894 67.867 61.5002 67.8929 61.5002 67.9199C61.5002 67.947 61.4894 67.9729 61.4702 67.992C61.451 68.0111 61.425 68.0219 61.3979 68.0219Z" fill="#F2F2F2"/>
<path d="M61.3979 69.8571H41.0314C41.0043 69.8571 40.9783 69.8464 40.9591 69.8272C40.94 69.8081 40.9292 69.7822 40.9292 69.7551C40.9292 69.7281 40.94 69.7022 40.9591 69.6831C40.9783 69.6639 41.0043 69.6532 41.0314 69.6532H61.3979C61.425 69.6532 61.451 69.6639 61.4702 69.6831C61.4894 69.7022 61.5002 69.7281 61.5002 69.7551C61.5002 69.7822 61.4894 69.8081 61.4702 69.8272C61.451 69.8464 61.425 69.8571 61.3979 69.8571Z" fill="#F2F2F2"/>
<path d="M61.3979 71.6923H41.0314C41.0043 71.6923 40.9783 71.6816 40.9591 71.6625C40.94 71.6433 40.9292 71.6174 40.9292 71.5904C40.9292 71.5633 40.94 71.5374 40.9591 71.5183C40.9783 71.4991 41.0043 71.4884 41.0314 71.4884H61.3979C61.425 71.4884 61.451 71.4991 61.4702 71.5183C61.4894 71.5374 61.5002 71.5633 61.5002 71.5904C61.5002 71.6174 61.4894 71.6433 61.4702 71.6625C61.451 71.6816 61.425 71.6923 61.3979 71.6923Z" fill="#F2F2F2"/>
</g>
<defs>
<clipPath id="clip0">
<rect width="212.932" height="113" rx="20" fill="white"/>
</clipPath>
</defs>
</svg>
