<svg width="167" height="113" viewBox="0 0 167 113" fill="none" xmlns="http://www.w3.org/2000/svg">
<path d="M106.718 113V98.6299C106.718 98.6299 112.308 108.818 106.718 113Z" fill="#F1F1F1"/>
<path d="M107.063 112.997L96.4956 103.279C96.4956 103.279 107.768 106.044 107.063 112.997Z" fill="#F1F1F1"/>
<path d="M167 4.58453H0.0712891V83.9343H167V4.58453Z" fill="#E5E5E5"/>
<path d="M162.227 11.3889H4.84473V77.5929H162.227V11.3889Z" fill="white"/>
<path d="M166.929 0H0V7.10409H166.929V0Z" fill="#F0810F"/>
<path d="M5.26997 4.8556C5.9959 4.8556 6.58438 4.26609 6.58438 3.53888C6.58438 2.81168 5.9959 2.22217 5.26997 2.22217C4.54405 2.22217 3.95557 2.81168 3.95557 3.53888C3.95557 4.26609 4.54405 4.8556 5.26997 4.8556Z" fill="white"/>
<path d="M10.2592 4.8556C10.9852 4.8556 11.5736 4.26609 11.5736 3.53888C11.5736 2.81168 10.9852 2.22217 10.2592 2.22217C9.53331 2.22217 8.94482 2.81168 8.94482 3.53888C8.94482 4.26609 9.53331 4.8556 10.2592 4.8556Z" fill="white"/>
<path d="M15.2485 4.8556C15.9744 4.8556 16.5629 4.26609 16.5629 3.53888C16.5629 2.81168 15.9744 2.22217 15.2485 2.22217C14.5226 2.22217 13.9341 2.81168 13.9341 3.53888C13.9341 4.26609 14.5226 4.8556 15.2485 4.8556Z" fill="white"/>
<path d="M30.629 26.4602C30.4571 26.4602 30.2923 26.5286 30.1708 26.6503C30.0492 26.7721 29.981 26.9372 29.981 27.1094C29.981 27.2816 30.0492 27.4467 30.1708 27.5684C30.2923 27.6902 30.4571 27.7585 30.629 27.7585H48.3355C48.5074 27.7585 48.6723 27.6902 48.7938 27.5684C48.9153 27.4467 48.9836 27.2816 48.9836 27.1094C48.9836 26.9372 48.9153 26.7721 48.7938 26.6503C48.6723 26.5286 48.5074 26.4602 48.3355 26.4602H30.629Z" fill="#3F3D56"/>
<path d="M20.6148 35.3992C20.443 35.3992 20.2781 35.4676 20.1566 35.5894C20.0351 35.7111 19.9668 35.8762 19.9668 36.0484C19.9668 36.2206 20.0351 36.3857 20.1566 36.5074C20.2781 36.6292 20.443 36.6976 20.6148 36.6976H58.3494C58.5213 36.6976 58.6861 36.6292 58.8077 36.5074C58.9292 36.3857 58.9975 36.2206 58.9975 36.0484C58.9975 35.8762 58.9292 35.7111 58.8077 35.5894C58.6861 35.4676 58.5213 35.3992 58.3494 35.3992H20.6148Z" fill="#CCCCCC"/>
<path d="M20.6148 40.564C20.443 40.564 20.2781 40.6324 20.1566 40.7542C20.0351 40.8759 19.9668 41.041 19.9668 41.2132C19.9668 41.3854 20.0351 41.5505 20.1566 41.6722C20.2781 41.794 20.443 41.8624 20.6148 41.8624H58.3494C58.5213 41.8624 58.6861 41.794 58.8077 41.6722C58.9292 41.5505 58.9975 41.3854 58.9975 41.2132C58.9975 41.041 58.9292 40.8759 58.8077 40.7542C58.6861 40.6324 58.5213 40.564 58.3494 40.564H20.6148Z" fill="#CCCCCC"/>
<path d="M20.6148 45.7288C20.443 45.7288 20.2781 45.7972 20.1566 45.919C20.0351 46.0407 19.9668 46.2058 19.9668 46.378C19.9668 46.5502 20.0351 46.7153 20.1566 46.837C20.2781 46.9588 20.443 47.0272 20.6148 47.0272H58.3494C58.5213 47.0272 58.6861 46.9588 58.8077 46.837C58.9292 46.7153 58.9975 46.5502 58.9975 46.378C58.9975 46.2058 58.9292 46.0407 58.8077 45.919C58.6861 45.7972 58.5213 45.7288 58.3494 45.7288H20.6148Z" fill="#CCCCCC"/>
<path d="M20.6148 50.8936C20.443 50.8936 20.2781 50.962 20.1566 51.0837C20.0351 51.2054 19.9668 51.3706 19.9668 51.5427C19.9668 51.7149 20.0351 51.88 20.1566 52.0018C20.2781 52.1235 20.443 52.1919 20.6148 52.1919H58.3494C58.5213 52.1919 58.6861 52.1235 58.8077 52.0018C58.9292 51.88 58.9975 51.7149 58.9975 51.5427C58.9975 51.3706 58.9292 51.2054 58.8077 51.0837C58.6861 50.962 58.5213 50.8936 58.3494 50.8936H20.6148Z" fill="#CCCCCC"/>
<path d="M20.6148 56.0583C20.443 56.0583 20.2781 56.1267 20.1566 56.2485C20.0351 56.3702 19.9668 56.5354 19.9668 56.7075C19.9668 56.8797 20.0351 57.0448 20.1566 57.1666C20.2781 57.2883 20.443 57.3567 20.6148 57.3567H58.3494C58.5213 57.3567 58.6861 57.2883 58.8077 57.1666C58.9292 57.0448 58.9975 56.8797 58.9975 56.7075C58.9975 56.5354 58.9292 56.3702 58.8077 56.2485C58.6861 56.1267 58.5213 56.0583 58.3494 56.0583H20.6148Z" fill="#CCCCCC"/>
<path d="M20.6148 61.2231C20.443 61.2231 20.2781 61.2915 20.1566 61.4133C20.0351 61.535 19.9668 61.7001 19.9668 61.8723C19.9668 62.0445 20.0351 62.2096 20.1566 62.3314C20.2781 62.4531 20.443 62.5215 20.6148 62.5215H58.3494C58.5213 62.5215 58.6861 62.4531 58.8077 62.3314C58.9292 62.2096 58.9975 62.0445 58.9975 61.8723C58.9975 61.7001 58.9292 61.535 58.8077 61.4133C58.6861 61.2915 58.5213 61.2231 58.3494 61.2231H20.6148Z" fill="#CCCCCC"/>
<path d="M145.096 62.7994H87.9661C87.5843 62.799 87.2182 62.6469 86.9482 62.3764C86.6782 62.1059 86.5263 61.7392 86.5259 61.3567V27.6917C86.5263 27.3092 86.6782 26.9425 86.9482 26.672C87.2182 26.4015 87.5843 26.2494 87.9661 26.249H145.096C145.478 26.2494 145.844 26.4015 146.114 26.672C146.384 26.9425 146.536 27.3092 146.536 27.6917V61.3567C146.536 61.7392 146.384 62.1059 146.114 62.3764C145.844 62.6469 145.478 62.799 145.096 62.7994Z" fill="#F1F1F1"/>
<path d="M152.611 70.4993H95.4813C95.0994 70.4989 94.7333 70.3468 94.4633 70.0763C94.1933 69.8058 94.0414 69.4391 94.041 69.0566V35.3916C94.0414 35.0091 94.1933 34.6424 94.4633 34.3719C94.7333 34.1014 95.0994 33.9493 95.4813 33.9489H152.611C152.993 33.9493 153.359 34.1014 153.629 34.3719C153.899 34.6424 154.051 35.0091 154.052 35.3916V69.0566C154.051 69.4391 153.899 69.8058 153.629 70.0763C153.359 70.3468 152.993 70.4989 152.611 70.4993Z" fill="white"/>
<path d="M152.612 70.9903H95.4816C94.9698 70.9897 94.4792 70.7858 94.1173 70.4233C93.7554 70.0608 93.5518 69.5692 93.5513 69.0565V35.3917C93.5518 34.879 93.7554 34.3875 94.1173 34.025C94.4792 33.6625 94.9698 33.4585 95.4816 33.4579H152.612C153.123 33.4585 153.614 33.6624 153.976 34.025C154.338 34.3875 154.541 34.879 154.542 35.3917V69.0565C154.541 69.5692 154.338 70.0608 153.976 70.4233C153.614 70.7858 153.123 70.9898 152.612 70.9903ZM95.4816 34.4399C95.2297 34.4402 94.9882 34.5405 94.8101 34.719C94.6319 34.8974 94.5317 35.1394 94.5315 35.3917V69.0565C94.5317 69.3089 94.6319 69.5508 94.8101 69.7293C94.9882 69.9077 95.2297 70.0081 95.4816 70.0084H152.612C152.863 70.0081 153.105 69.9077 153.283 69.7293C153.461 69.5508 153.561 69.3089 153.562 69.0565V35.3917C153.561 35.1394 153.461 34.8974 153.283 34.719C153.105 34.5405 152.863 34.4402 152.612 34.4399H95.4816Z" fill="#3F3D56"/>
<path d="M123.97 61.6656C126.708 61.6656 128.927 59.4422 128.927 56.6995C128.927 53.9568 126.708 51.7333 123.97 51.7333C121.232 51.7333 119.012 53.9568 119.012 56.6995C119.012 59.4422 121.232 61.6656 123.97 61.6656Z" fill="#FF6583"/>
<path d="M133.533 51.9218C133.241 51.6117 132.89 51.3632 132.501 51.1908C132.112 51.0185 131.693 50.9258 131.267 50.9182C130.842 50.9106 130.419 50.9882 130.024 51.1465C129.629 51.3048 129.27 51.5406 128.967 51.8401L112.889 67.9463C110.83 70.0191 108.68 66.8488 107.306 65.5704C104.002 62.2972 100.434 68.4346 98.2134 70.1922H149.88V69.5333L133.533 51.9218Z" fill="#F0810F"/>
<path d="M69.8462 71.4449L68.9769 59.3765L70.5382 48.0673L66.1038 47.7673L65.2285 60.2599L67.7023 72.0078C67.4916 72.2995 67.3761 72.6494 67.3714 73.0095C67.3668 73.3696 67.4733 73.7223 67.6764 74.0194C67.8795 74.3165 68.1693 74.5436 68.5061 74.6694C68.8429 74.7953 69.2103 74.8138 69.5581 74.7226C69.9058 74.6313 70.2169 74.4346 70.4488 74.1594C70.6807 73.8843 70.8221 73.5441 70.8537 73.1853C70.8852 72.8266 70.8053 72.4669 70.625 72.1554C70.4447 71.8438 70.1727 71.5957 69.8462 71.4449Z" fill="#9F616A"/>
<path d="M65.5381 49.3928L66.5793 44.8784C66.7787 44.014 67.3006 43.2586 68.038 42.7671C68.7755 42.2757 69.6726 42.0853 70.5456 42.2351C71.4186 42.3848 72.2014 42.8634 72.7335 43.5726C73.2657 44.2819 73.5069 45.1682 73.4078 46.0499L72.8344 51.1509L65.5381 49.3928Z" fill="#CBCBCB"/>
<path d="M73.7475 110.764H75.8379L76.8324 102.686L73.7471 102.687L73.7475 110.764Z" fill="#9F616A"/>
<path d="M73.2139 110.08L77.3309 110.08H77.331C78.0268 110.08 78.6942 110.357 79.1862 110.85C79.6782 111.343 79.9546 112.012 79.9547 112.709V112.794L73.214 112.794L73.2139 110.08Z" fill="#2F2E41"/>
<path d="M84.1619 110.696L86.1717 110.119L84.9075 102.079L81.9414 102.93L84.1619 110.696Z" fill="#9F616A"/>
<path d="M83.4614 110.185L87.4192 109.05L87.4194 109.05C88.0883 108.858 88.806 108.94 89.4144 109.278C90.0229 109.616 90.4724 110.183 90.664 110.853L90.6875 110.935L84.2074 112.794L83.4614 110.185Z" fill="#2F2E41"/>
<path d="M72.6174 107.832L73.5899 83.3636L71.0644 72.2902C67.6659 66.5821 71.3323 57.4772 71.3697 57.3859L71.3834 57.3526L71.419 57.3477L80.3091 56.1411L80.4339 56.4282C83.9112 64.392 84.8762 73.2301 83.1997 81.7587L82.2744 86.4995L86.8474 104.995L82.5195 107.163L79.1989 98.5372L76.9543 107.363L72.6174 107.832Z" fill="#2F2E41"/>
<path d="M70.1987 59.6553L67.2984 51.1423C65.4954 47.9616 66.6391 45.1378 67.916 43.329C69.2949 41.3758 69.3777 40.2804 69.396 40.2683L69.4108 40.2586L73.2212 40.1429L76.7478 43.7327C76.9697 43.6459 78.8434 48.2717 78.6846 48.5042L81.1476 56.4802L70.1987 59.6553Z" fill="#CBCBCB"/>
<path d="M93.6823 61.1275L84.1284 53.7244L76.7607 45.0139L73.5791 48.1227L82.2844 57.1108L92.6704 63.1028C92.7468 63.4547 92.9299 63.7743 93.1945 64.018C93.4592 64.2617 93.7925 64.4176 94.149 64.4643C94.5054 64.511 94.8676 64.4462 95.1859 64.2788C95.5042 64.1115 95.7631 63.8497 95.9273 63.5293C96.0914 63.2089 96.1527 62.8456 96.1028 62.4889C96.0529 62.1323 95.8943 61.7998 95.6486 61.5369C95.4029 61.2741 95.0821 61.0936 94.7302 61.0204C94.3782 60.9471 94.0122 60.9845 93.6823 61.1275V61.1275Z" fill="#9F616A"/>
<path d="M72.6753 51.2725L70.0132 47.4835C69.5034 46.758 69.2899 45.8646 69.4165 44.9864C69.543 44.1083 70 43.3118 70.6938 42.7603C71.3876 42.2088 72.2657 41.944 73.1482 42.0201C74.0306 42.0962 74.8506 42.5075 75.4401 43.1697L78.8506 47.001L72.6753 51.2725Z" fill="#CBCBCB"/>
<path d="M70.8677 39.0991C73.3668 39.0991 75.3927 37.0697 75.3927 34.5662C75.3927 32.0628 73.3668 30.0333 70.8677 30.0333C68.3687 30.0333 66.3428 32.0628 66.3428 34.5662C66.3428 37.0697 68.3687 39.0991 70.8677 39.0991Z" fill="#9F616A"/>
<path d="M75.4688 32.2666H68.2837V29.1292C69.8607 28.5015 71.4039 27.9678 72.3368 29.1292C73.1674 29.1292 73.9641 29.4597 74.5514 30.0481C75.1388 30.6365 75.4688 31.4345 75.4688 32.2666Z" fill="#2F2E41"/>
<path d="M69.2743 28.3768C62.6912 28.1967 63.9378 39.0611 63.9378 39.0611C63.9378 39.0611 65.1798 39.2256 65.7466 39.3223L66.431 38.9362L67.1674 39.42C67.5056 39.4217 67.8608 39.4152 68.2291 39.4083L68.5667 38.7119L69.3196 39.3958C70.69 39.3979 74.4092 39.4357 74.4092 39.4357C74.4092 39.4357 76.6505 28.5786 69.2743 28.3768Z" fill="#2F2E41"/>
<path d="M122.584 112.916H47.0323C46.9797 112.916 46.9293 112.895 46.8921 112.858C46.8549 112.821 46.834 112.77 46.834 112.718C46.834 112.665 46.8549 112.614 46.8921 112.577C46.9293 112.54 46.9797 112.519 47.0323 112.519H122.584C122.636 112.519 122.687 112.54 122.724 112.577C122.761 112.614 122.782 112.665 122.782 112.718C122.782 112.77 122.761 112.821 122.724 112.858C122.687 112.895 122.636 112.916 122.584 112.916Z" fill="#CBCBCB"/>
</svg>
