<svg width="210" height="113" viewBox="0 0 210 113" fill="none" xmlns="http://www.w3.org/2000/svg">
<g clip-path="url(#clip0)">
<path opacity="0.1" d="M209.408 72.5296C209.411 75.5994 208.989 78.6547 208.155 81.6089C207.348 84.4568 206.162 87.1831 204.627 89.7143C204.627 98.8851 198.436 106.811 189.451 110.582C185.696 112.142 181.668 112.938 177.602 112.925H39.7529C32.3852 112.925 25.5574 110.937 19.9579 107.551C18.3554 106.586 16.8352 105.491 15.4128 104.276C9.18916 98.9272 5.33048 91.5356 5.33048 83.3716C1.83756 77.9931 -0.0145479 71.7142 8.60538e-05 65.301C8.60538e-05 51.8725 7.94259 40.3258 19.3209 35.2278C20.8319 34.5512 22.3931 33.9931 23.9905 33.5584C24.5555 33.4047 25.1266 33.2668 25.7039 33.1447C27.2426 32.8171 28.8033 32.6029 30.3734 32.5041C30.9409 32.4687 31.5114 32.4485 32.085 32.4437H32.3998C33.0331 32.4437 33.661 32.4656 34.2852 32.5022L34.4902 32.1544C34.7416 31.7346 34.9991 31.3191 35.2627 30.9079C35.7386 30.1586 36.2377 29.4203 36.76 28.693C37.3067 27.9254 37.8772 27.17 38.4715 26.4268L38.6235 26.2438C38.9603 25.824 39.3044 25.4091 39.6559 24.999C40.7542 23.7189 41.9135 22.4772 43.1338 21.274C56.3335 8.33607 77.0126 0.00732422 100.26 0.00732422C118.349 0.00732422 134.884 5.05033 147.549 13.3827C152.347 10.6675 157.767 9.24276 163.28 9.24765C181.171 9.24765 195.68 23.9593 195.68 42.1068C195.677 43.2551 195.616 44.4025 195.497 45.5445C199.809 48.5974 203.325 52.6427 205.746 57.3393C208.167 62.0358 209.423 67.2457 209.408 72.5296Z" fill="#F0810F"/>
<path opacity="0.2" d="M43.1376 21.2667V24.9918H39.6597C40.7494 23.7129 41.9087 22.4712 43.1376 21.2667Z" fill="#F0810F"/>
<path opacity="0.2" d="M49.5202 20.3221H44.8506V24.9917H49.5202V20.3221Z" fill="#F0810F"/>
<path opacity="0.2" d="M55.9015 20.3221H51.2319V24.9917H55.9015V20.3221Z" fill="#F0810F"/>
<path opacity="0.2" d="M62.2843 20.3221H57.6147V24.9917H62.2843V20.3221Z" fill="#F0810F"/>
<path opacity="0.2" d="M68.6657 20.3221H63.9961V24.9917H68.6657V20.3221Z" fill="#F0810F"/>
<path opacity="0.2" d="M75.0485 20.3221H70.3789V24.9917H75.0485V20.3221Z" fill="#F0810F"/>
<path d="M81.4313 20.3221H76.7617V24.9917H81.4313V20.3221Z" fill="#F0810F"/>
<path opacity="0.2" d="M87.8127 20.3221H83.1431V24.9917H87.8127V20.3221Z" fill="#F0810F"/>
<path opacity="0.2" d="M94.1954 20.3221H89.5259V24.9917H94.1954V20.3221Z" fill="#F0810F"/>
<path opacity="0.2" d="M100.576 20.3221H95.9067V24.9917H100.576V20.3221Z" fill="#F0810F"/>
<path d="M106.959 20.3221H102.29V24.9917H106.959V20.3221Z" fill="#F0810F"/>
<path opacity="0.2" d="M113.342 20.3221H108.673V24.9917H113.342V20.3221Z" fill="#F0810F"/>
<path opacity="0.2" d="M119.723 20.3221H115.054V24.9917H119.723V20.3221Z" fill="#F0810F"/>
<path opacity="0.2" d="M126.106 20.3221H121.437V24.9917H126.106V20.3221Z" fill="#F0810F"/>
<path opacity="0.2" d="M132.489 20.3221H127.82V24.9917H132.489V20.3221Z" fill="#F0810F"/>
<path opacity="0.2" d="M138.87 20.3221H134.201V24.9917H138.87V20.3221Z" fill="#F0810F"/>
<path opacity="0.2" d="M145.253 20.3221H140.583V24.9917H145.253V20.3221Z" fill="#F0810F"/>
<path d="M151.634 20.3221H146.965V24.9917H151.634V20.3221Z" fill="#F0810F"/>
<path d="M158.017 20.3221H153.348V24.9917H158.017V20.3221Z" fill="#F0810F"/>
<path opacity="0.2" d="M164.4 20.3221H159.73V24.9917H164.4V20.3221Z" fill="#F0810F"/>
<path opacity="0.2" d="M170.781 20.3221H166.112V24.9917H170.781V20.3221Z" fill="#F0810F"/>
<path d="M177.164 20.3221H172.495V24.9917H177.164V20.3221Z" fill="#F0810F"/>
<path d="M183.546 20.3221H178.876V24.9917H183.546V20.3221Z" fill="#F0810F"/>
<path d="M36.7561 28.6912V30.9061H35.2588C35.7347 30.1519 36.2338 29.4136 36.7561 28.6912Z" fill="#F0810F"/>
<path opacity="0.2" d="M43.1374 26.2365H38.4678V30.906H43.1374V26.2365Z" fill="#F0810F"/>
<path d="M49.5202 26.2365H44.8506V30.906H49.5202V26.2365Z" fill="#F0810F"/>
<path opacity="0.2" d="M55.9015 26.2365H51.2319V30.906H55.9015V26.2365Z" fill="#F0810F"/>
<path opacity="0.7" d="M62.2843 26.2365H57.6147V30.906H62.2843V26.2365Z" fill="#F0810F"/>
<path opacity="0.2" d="M68.6657 26.2365H63.9961V30.906H68.6657V26.2365Z" fill="#F0810F"/>
<path opacity="0.4" d="M75.0485 26.2365H70.3789V30.906H75.0485V26.2365Z" fill="#F0810F"/>
<path d="M81.4313 26.2365H76.7617V30.906H81.4313V26.2365Z" fill="#F0810F"/>
<path opacity="0.4" d="M87.8127 26.2365H83.1431V30.906H87.8127V26.2365Z" fill="#F0810F"/>
<path opacity="0.2" d="M94.1954 26.2365H89.5259V30.906H94.1954V26.2365Z" fill="#F0810F"/>
<path opacity="0.4" d="M100.576 26.2365H95.9067V30.906H100.576V26.2365Z" fill="#F0810F"/>
<path d="M106.959 26.2365H102.29V30.906H106.959V26.2365Z" fill="#F0810F"/>
<path opacity="0.4" d="M113.342 26.2365H108.673V30.906H113.342V26.2365Z" fill="#F0810F"/>
<path opacity="0.4" d="M119.723 26.2365H115.054V30.906H119.723V26.2365Z" fill="#F0810F"/>
<path opacity="0.2" d="M126.106 26.2365H121.437V30.906H126.106V26.2365Z" fill="#F0810F"/>
<path opacity="0.4" d="M132.489 26.2365H127.82V30.906H132.489V26.2365Z" fill="#F0810F"/>
<path opacity="0.4" d="M138.87 26.2365H134.201V30.906H138.87V26.2365Z" fill="#F0810F"/>
<path opacity="0.2" d="M145.253 26.2365H140.583V30.906H145.253V26.2365Z" fill="#F0810F"/>
<path opacity="0.2" d="M151.634 26.2365H146.965V30.906H151.634V26.2365Z" fill="#F0810F"/>
<path opacity="0.4" d="M158.017 26.2365H153.348V30.906H158.017V26.2365Z" fill="#F0810F"/>
<path opacity="0.2" d="M164.4 26.2365H159.73V30.906H164.4V26.2365Z" fill="#F0810F"/>
<path d="M170.781 26.2365H166.112V30.906H170.781V26.2365Z" fill="#F0810F"/>
<path d="M177.164 26.2365H172.495V30.906H177.164V26.2365Z" fill="#F0810F"/>
<path d="M183.546 26.2365H178.876V30.906H183.546V26.2365Z" fill="#F0810F"/>
<path opacity="0.2" d="M23.9904 33.5583V36.8221H19.3208V35.2278C20.8317 34.5511 22.393 33.993 23.9904 33.5583Z" fill="#F0810F"/>
<path opacity="0.2" d="M30.3732 32.504V36.8222H25.7036V33.1447L30.3732 32.504Z" fill="#F0810F"/>
<path d="M36.7545 32.1526H32.085V36.8222H36.7545V32.1526Z" fill="#F0810F"/>
<path opacity="0.7" d="M43.1374 32.1526H38.4678V36.8222H43.1374V32.1526Z" fill="#F0810F"/>
<path d="M49.5202 32.1526H44.8506V36.8222H49.5202V32.1526Z" fill="#F0810F"/>
<path opacity="0.7" d="M55.9015 32.1526H51.2319V36.8222H55.9015V32.1526Z" fill="#F0810F"/>
<path opacity="0.7" d="M62.2843 32.1526H57.6147V36.8222H62.2843V32.1526Z" fill="#F0810F"/>
<path opacity="0.2" d="M68.6657 32.1526H63.9961V36.8222H68.6657V32.1526Z" fill="#F0810F"/>
<path opacity="0.4" d="M75.0485 32.1526H70.3789V36.8222H75.0485V32.1526Z" fill="#F0810F"/>
<path opacity="0.4" d="M81.4313 32.1526H76.7617V36.8222H81.4313V32.1526Z" fill="#F0810F"/>
<path d="M87.8127 32.1526H83.1431V36.8222H87.8127V32.1526Z" fill="#F0810F"/>
<path opacity="0.2" d="M94.1954 32.1526H89.5259V36.8222H94.1954V32.1526Z" fill="#F0810F"/>
<path opacity="0.4" d="M100.576 32.1526H95.9067V36.8222H100.576V32.1526Z" fill="#F0810F"/>
<path d="M106.959 32.1526H102.29V36.8222H106.959V32.1526Z" fill="#F0810F"/>
<path opacity="0.2" d="M113.342 32.1526H108.673V36.8222H113.342V32.1526Z" fill="#F0810F"/>
<path opacity="0.4" d="M119.723 32.1526H115.054V36.8222H119.723V32.1526Z" fill="#F0810F"/>
<path opacity="0.2" d="M126.106 32.1526H121.437V36.8222H126.106V32.1526Z" fill="#F0810F"/>
<path d="M132.489 32.1526H127.82V36.8222H132.489V32.1526Z" fill="#F0810F"/>
<path opacity="0.2" d="M138.87 32.1526H134.201V36.8222H138.87V32.1526Z" fill="#F0810F"/>
<path opacity="0.7" d="M145.253 32.1526H140.583V36.8222H145.253V32.1526Z" fill="#F0810F"/>
<path opacity="0.7" d="M151.634 32.1526H146.965V36.8222H151.634V32.1526Z" fill="#F0810F"/>
<path opacity="0.4" d="M158.017 32.1526H153.348V36.8222H158.017V32.1526Z" fill="#F0810F"/>
<path opacity="0.2" d="M164.4 32.1526H159.73V36.8222H164.4V32.1526Z" fill="#F0810F"/>
<path d="M170.781 32.1526H166.112V36.8222H170.781V32.1526Z" fill="#F0810F"/>
<path d="M177.164 32.1526H172.495V36.8222H177.164V32.1526Z" fill="#F0810F"/>
<path d="M183.546 32.1526H178.876V36.8222H183.546V32.1526Z" fill="#F0810F"/>
<path opacity="0.2" d="M23.9904 38.067H19.3208V42.7366H23.9904V38.067Z" fill="#F0810F"/>
<path opacity="0.2" d="M30.3732 38.067H25.7036V42.7366H30.3732V38.067Z" fill="#F0810F"/>
<path opacity="0.2" d="M36.7545 38.067H32.085V42.7366H36.7545V38.067Z" fill="#F0810F"/>
<path opacity="0.2" d="M43.1374 38.067H38.4678V42.7366H43.1374V38.067Z" fill="#F0810F"/>
<path d="M49.5202 38.067H44.8506V42.7366H49.5202V38.067Z" fill="#F0810F"/>
<path opacity="0.7" d="M55.9015 38.067H51.2319V42.7366H55.9015V38.067Z" fill="#F0810F"/>
<path opacity="0.7" d="M62.2843 38.067H57.6147V42.7366H62.2843V38.067Z" fill="#F0810F"/>
<path opacity="0.2" d="M68.6657 38.067H63.9961V42.7366H68.6657V38.067Z" fill="#F0810F"/>
<path opacity="0.2" d="M75.0485 38.067H70.3789V42.7366H75.0485V38.067Z" fill="#F0810F"/>
<path opacity="0.4" d="M81.4313 38.067H76.7617V42.7366H81.4313V38.067Z" fill="#F0810F"/>
<path opacity="0.4" d="M87.8127 38.067H83.1431V42.7366H87.8127V38.067Z" fill="#F0810F"/>
<path d="M94.1954 38.067H89.5259V42.7366H94.1954V38.067Z" fill="#F0810F"/>
<path opacity="0.2" d="M100.576 38.067H95.9067V42.7366H100.576V38.067Z" fill="#F0810F"/>
<path opacity="0.4" d="M106.959 38.067H102.29V42.7366H106.959V38.067Z" fill="#F0810F"/>
<path opacity="0.4" d="M113.342 38.067H108.673V42.7366H113.342V38.067Z" fill="#F0810F"/>
<path opacity="0.4" d="M119.723 38.067H115.054V42.7366H119.723V38.067Z" fill="#F0810F"/>
<path opacity="0.4" d="M126.106 38.067H121.437V42.7366H126.106V38.067Z" fill="#F0810F"/>
<path opacity="0.2" d="M132.489 38.067H127.82V42.7366H132.489V38.067Z" fill="#F0810F"/>
<path opacity="0.2" d="M138.87 38.067H134.201V42.7366H138.87V38.067Z" fill="#F0810F"/>
<path opacity="0.2" d="M145.253 38.067H140.583V42.7366H145.253V38.067Z" fill="#F0810F"/>
<path opacity="0.2" d="M151.634 38.067H146.965V42.7366H151.634V38.067Z" fill="#F0810F"/>
<path opacity="0.7" d="M158.017 38.067H153.348V42.7366H158.017V38.067Z" fill="#F0810F"/>
<path opacity="0.7" d="M164.4 38.067H159.73V42.7366H164.4V38.067Z" fill="#F0810F"/>
<path opacity="0.4" d="M170.781 38.067H166.112V42.7366H170.781V38.067Z" fill="#F0810F"/>
<path opacity="0.2" d="M177.164 38.067H172.495V42.7366H177.164V38.067Z" fill="#F0810F"/>
<path d="M183.546 38.067H178.876V42.7366H183.546V38.067Z" fill="#F0810F"/>
<path opacity="0.2" d="M23.9904 43.983H19.3208V48.6526H23.9904V43.983Z" fill="#F0810F"/>
<path opacity="0.2" d="M30.3732 43.983H25.7036V48.6526H30.3732V43.983Z" fill="#F0810F"/>
<path opacity="0.4" d="M36.7545 43.983H32.085V48.6526H36.7545V43.983Z" fill="#F0810F"/>
<path opacity="0.2" d="M43.1374 43.983H38.4678V48.6526H43.1374V43.983Z" fill="#F0810F"/>
<path opacity="0.2" d="M49.5202 43.983H44.8506V48.6526H49.5202V43.983Z" fill="#F0810F"/>
<path opacity="0.7" d="M55.9015 43.983H51.2319V48.6526H55.9015V43.983Z" fill="#F0810F"/>
<path opacity="0.7" d="M62.2843 43.983H57.6147V48.6526H62.2843V43.983Z" fill="#F0810F"/>
<path opacity="0.2" d="M68.6657 43.983H63.9961V48.6526H68.6657V43.983Z" fill="#F0810F"/>
<path opacity="0.2" d="M75.0485 43.983H70.3789V48.6526H75.0485V43.983Z" fill="#F0810F"/>
<path opacity="0.4" d="M81.4313 43.983H76.7617V48.6526H81.4313V43.983Z" fill="#F0810F"/>
<path d="M87.8127 43.983H83.1431V48.6526H87.8127V43.983Z" fill="#F0810F"/>
<path opacity="0.2" d="M94.1954 43.983H89.5259V48.6526H94.1954V43.983Z" fill="#F0810F"/>
<path d="M100.576 43.983H95.9067V48.6526H100.576V43.983Z" fill="#F0810F"/>
<path d="M106.959 43.983H102.29V48.6526H106.959V43.983Z" fill="#F0810F"/>
<path d="M113.342 43.983H108.673V48.6526H113.342V43.983Z" fill="#F0810F"/>
<path opacity="0.2" d="M119.723 43.983H115.054V48.6526H119.723V43.983Z" fill="#F0810F"/>
<path d="M126.106 43.983H121.437V48.6526H126.106V43.983Z" fill="#F0810F"/>
<path opacity="0.2" d="M132.489 43.983H127.82V48.6526H132.489V43.983Z" fill="#F0810F"/>
<path opacity="0.2" d="M138.87 43.983H134.201V48.6526H138.87V43.983Z" fill="#F0810F"/>
<path opacity="0.2" d="M145.253 43.983H140.583V48.6526H145.253V43.983Z" fill="#F0810F"/>
<path opacity="0.2" d="M151.634 43.983H146.965V48.6526H151.634V43.983Z" fill="#F0810F"/>
<path opacity="0.2" d="M158.017 43.983H153.348V48.6526H158.017V43.983Z" fill="#F0810F"/>
<path opacity="0.7" d="M164.4 43.983H159.73V48.6526H164.4V43.983Z" fill="#F0810F"/>
<path opacity="0.2" d="M170.781 43.983H166.112V48.6526H170.781V43.983Z" fill="#F0810F"/>
<path opacity="0.2" d="M177.164 43.983H172.495V48.6526H177.164V43.983Z" fill="#F0810F"/>
<path d="M183.546 43.983H178.876V48.6526H183.546V43.983Z" fill="#F0810F"/>
<path opacity="0.2" d="M23.9904 49.8975H19.3208V54.5671H23.9904V49.8975Z" fill="#F0810F"/>
<path opacity="0.2" d="M30.3732 49.8975H25.7036V54.5671H30.3732V49.8975Z" fill="#F0810F"/>
<path opacity="0.2" d="M36.7545 49.8975H32.085V54.5671H36.7545V49.8975Z" fill="#F0810F"/>
<path opacity="0.4" d="M43.1374 49.8975H38.4678V54.5671H43.1374V49.8975Z" fill="#F0810F"/>
<path opacity="0.2" d="M49.5202 49.8975H44.8506V54.5671H49.5202V49.8975Z" fill="#F0810F"/>
<path opacity="0.2" d="M55.9015 49.8975H51.2319V54.5671H55.9015V49.8975Z" fill="#F0810F"/>
<path opacity="0.7" d="M62.2843 49.8975H57.6147V54.5671H62.2843V49.8975Z" fill="#F0810F"/>
<path opacity="0.2" d="M68.6657 49.8975H63.9961V54.5671H68.6657V49.8975Z" fill="#F0810F"/>
<path opacity="0.2" d="M75.0485 49.8975H70.3789V54.5671H75.0485V49.8975Z" fill="#F0810F"/>
<path opacity="0.2" d="M81.4313 49.8975H76.7617V54.5671H81.4313V49.8975Z" fill="#F0810F"/>
<path d="M87.8127 49.8975H83.1431V54.5671H87.8127V49.8975Z" fill="#F0810F"/>
<path opacity="0.2" d="M94.1954 49.8975H89.5259V54.5671H94.1954V49.8975Z" fill="#F0810F"/>
<path d="M100.576 49.8975H95.9067V54.5671H100.576V49.8975Z" fill="#F0810F"/>
<path d="M106.959 49.8975H102.29V54.5671H106.959V49.8975Z" fill="#F0810F"/>
<path opacity="0.2" d="M113.342 49.8975H108.673V54.5671H113.342V49.8975Z" fill="#F0810F"/>
<path opacity="0.2" d="M119.723 49.8975H115.054V54.5671H119.723V49.8975Z" fill="#F0810F"/>
<path opacity="0.2" d="M126.106 49.8975H121.437V54.5671H126.106V49.8975Z" fill="#F0810F"/>
<path opacity="0.2" d="M132.489 49.8975H127.82V54.5671H132.489V49.8975Z" fill="#F0810F"/>
<path opacity="0.2" d="M138.87 49.8975H134.201V54.5671H138.87V49.8975Z" fill="#F0810F"/>
<path opacity="0.2" d="M145.253 49.8975H140.583V54.5671H145.253V49.8975Z" fill="#F0810F"/>
<path opacity="0.2" d="M151.634 49.8975H146.965V54.5671H151.634V49.8975Z" fill="#F0810F"/>
<path opacity="0.2" d="M158.017 49.8975H153.348V54.5671H158.017V49.8975Z" fill="#F0810F"/>
<path opacity="0.2" d="M164.4 49.8975H159.73V54.5671H164.4V49.8975Z" fill="#F0810F"/>
<path opacity="0.2" d="M170.781 49.8975H166.112V54.5671H170.781V49.8975Z" fill="#F0810F"/>
<path opacity="0.4" d="M177.164 49.8975H172.495V54.5671H177.164V49.8975Z" fill="#F0810F"/>
<path d="M183.546 49.8975H178.876V54.5671H183.546V49.8975Z" fill="#F0810F"/>
<path opacity="0.7" d="M23.9904 55.8135H19.3208V60.483H23.9904V55.8135Z" fill="#F0810F"/>
<path opacity="0.7" d="M30.3732 55.8135H25.7036V60.483H30.3732V55.8135Z" fill="#F0810F"/>
<path opacity="0.7" d="M36.7545 55.8135H32.085V60.483H36.7545V55.8135Z" fill="#F0810F"/>
<path opacity="0.7" d="M43.1374 55.8135H38.4678V60.483H43.1374V55.8135Z" fill="#F0810F"/>
<path opacity="0.7" d="M49.5202 55.8135H44.8506V60.483H49.5202V55.8135Z" fill="#F0810F"/>
<path opacity="0.2" d="M55.9015 55.8135H51.2319V60.483H55.9015V55.8135Z" fill="#F0810F"/>
<path opacity="0.2" d="M62.2843 55.8135H57.6147V60.483H62.2843V55.8135Z" fill="#F0810F"/>
<path opacity="0.2" d="M68.6657 55.8135H63.9961V60.483H68.6657V55.8135Z" fill="#F0810F"/>
<path opacity="0.2" d="M75.0485 55.8135H70.3789V60.483H75.0485V55.8135Z" fill="#F0810F"/>
<path opacity="0.2" d="M81.4313 55.8135H76.7617V60.483H81.4313V55.8135Z" fill="#F0810F"/>
<path opacity="0.2" d="M87.8127 55.8135H83.1431V60.483H87.8127V55.8135Z" fill="#F0810F"/>
<path d="M94.1954 55.8135H89.5259V60.483H94.1954V55.8135Z" fill="#F0810F"/>
<path opacity="0.2" d="M100.576 55.8135H95.9067V60.483H100.576V55.8135Z" fill="#F0810F"/>
<path opacity="0.2" d="M106.959 55.8135H102.29V60.483H106.959V55.8135Z" fill="#F0810F"/>
<path opacity="0.2" d="M113.342 55.8135H108.673V60.483H113.342V55.8135Z" fill="#F0810F"/>
<path d="M119.723 55.8135H115.054V60.483H119.723V55.8135Z" fill="#F0810F"/>
<path opacity="0.2" d="M126.106 55.8135H121.437V60.483H126.106V55.8135Z" fill="#F0810F"/>
<path opacity="0.2" d="M132.489 55.8135H127.82V60.483H132.489V55.8135Z" fill="#F0810F"/>
<path opacity="0.2" d="M138.87 55.8135H134.201V60.483H138.87V55.8135Z" fill="#F0810F"/>
<path opacity="0.2" d="M145.253 55.8135H140.583V60.483H145.253V55.8135Z" fill="#F0810F"/>
<path opacity="0.2" d="M151.634 55.8135H146.965V60.483H151.634V55.8135Z" fill="#F0810F"/>
<path opacity="0.2" d="M158.017 55.8135H153.348V60.483H158.017V55.8135Z" fill="#F0810F"/>
<path opacity="0.2" d="M164.4 55.8135H159.73V60.483H164.4V55.8135Z" fill="#F0810F"/>
<path opacity="0.2" d="M170.781 55.8135H166.112V60.483H170.781V55.8135Z" fill="#F0810F"/>
<path opacity="0.2" d="M177.164 55.8135H172.495V60.483H177.164V55.8135Z" fill="#F0810F"/>
<path d="M183.546 55.8135H178.876V60.483H183.546V55.8135Z" fill="#F0810F"/>
<path d="M134.453 72.9927C137.978 72.9927 140.836 70.1349 140.836 66.6097C140.836 63.0845 137.978 60.2268 134.453 60.2268C130.928 60.2268 128.07 63.0845 128.07 66.6097C128.07 70.1349 130.928 72.9927 134.453 72.9927Z" fill="#767D9F"/>
<path d="M134.122 58.4897C134.759 61.2696 135.3 64.0703 135.744 66.8917C135.877 67.73 135.996 68.6142 135.693 69.4068C135.438 70.0676 134.92 70.5838 134.514 71.1622C134.107 71.7407 133.8 72.482 134.047 73.1446C134.294 73.8073 135.015 74.1697 135.704 74.3564C137.673 74.8873 139.773 74.501 141.733 73.9263C142.621 73.6978 143.472 73.3453 144.261 72.8792C145.092 72.352 145.773 71.6198 146.399 70.8657C149.257 67.4006 151.127 63.2417 152.888 59.1084C151.757 59.2114 150.617 59.0437 149.563 58.6191C148.509 58.1945 147.572 57.5252 146.827 56.6665C146.106 55.819 145.577 54.6384 145.984 53.6023C144.792 54.2558 143.377 54.2997 142.094 54.7464C141.298 55.0503 140.532 55.4271 139.806 55.8721C138.93 56.3785 138.058 56.8947 137.192 57.4207C136.201 58.0174 135.273 58.5483 134.122 58.4897Z" fill="#AE6E79"/>
<path d="M147.472 63.282C146.353 65.4585 144.898 67.5507 142.821 68.8467C140.743 70.1427 137.946 70.4942 135.865 69.2128C134.84 68.5868 134.064 67.6349 133.168 66.8332C132.273 66.0314 131.155 65.345 129.952 65.4493C128.627 65.5646 127.589 66.5989 126.701 67.5892C125.354 69.0938 124.053 70.6626 123.099 72.4436C121.268 75.8666 120.835 79.8681 120.915 83.7487C120.996 87.6294 121.558 91.4899 121.57 95.3705C121.589 100.144 120.78 104.88 119.961 109.582C127.485 108.656 135.017 110.681 142.557 111.448C147.382 111.944 152.244 111.933 157.095 111.92C157.948 111.92 158.856 111.898 159.566 111.426C160 111.109 160.351 110.692 160.589 110.21C161.259 108.975 161.528 107.565 161.715 106.172C162.189 102.654 162.204 99.0919 162.217 95.5408C162.249 86.9375 162.281 78.303 161.188 69.7674C160.919 67.6679 160.575 65.5573 159.769 63.5932C158.964 61.6291 157.649 59.8224 155.812 58.7698C154.631 58.0926 151.894 56.9137 150.503 57.5965C148.942 58.358 148.221 61.8249 147.472 63.282Z" fill="#767D9F"/>
<path d="M148.028 87.5763C147.745 82.2678 146.589 76.6025 149.048 71.8908C149.652 70.7339 147.485 69.2896 148.155 68.1694C148.972 66.8035 149.592 65.3288 149.996 63.789C150.135 63.26 150.247 62.6999 150.115 62.169C149.872 61.2007 148.914 60.6241 148.101 60.0347C147.205 59.383 146.743 57.3969 146.454 56.3224C146.165 55.2479 148.755 56.5421 149.796 56.1595C151.243 55.6305 153.08 55.9637 154.523 56.5C155.328 56.7965 156.203 56.8222 157.062 56.8441C158.729 56.8881 160.402 56.9302 162.057 56.7251C162.8 56.6318 163.545 56.4908 164.292 56.5329C166.198 56.6409 167.854 57.9442 168.982 59.4855C170.109 61.0268 170.827 62.8225 171.751 64.4919C172.522 65.8831 173.441 67.1974 174.098 68.6453C174.68 69.9267 175.048 71.3032 175.412 72.6724L176.351 76.1851C176.516 76.6876 176.594 77.2143 176.582 77.7429C176.534 78.3048 176.285 78.8284 176.033 79.3281C175.078 81.1803 173.932 82.928 172.615 84.5431C170.64 86.9649 168.242 89.1487 167.069 92.0482C166.611 93.1776 166.357 94.3784 166.124 95.5755C165.187 100.364 164.521 105.201 164.129 110.064C161.99 109.074 159.748 108.325 157.444 107.829C156.296 107.583 155.135 107.4 153.966 107.28C152.943 107.174 151.623 107.375 150.649 107.097C149.02 106.634 148.841 103.879 148.594 102.436C148.198 100.139 148.12 97.8014 148.105 95.4803C148.087 92.8408 148.169 90.2067 148.028 87.5763Z" fill="#4C4981"/>
<path d="M112.251 77.6495C113.022 82.0427 113.871 86.4487 115.546 90.5765C115.504 90.6167 115.462 90.6533 115.42 90.69C115.272 90.8163 115.118 90.9352 114.957 91.056C114.581 91.3196 114.17 91.543 113.858 91.8871C113.741 92.0188 113.648 92.1707 113.584 92.3356C113.526 92.4643 113.497 92.6037 113.497 92.7447C113.497 92.8857 113.526 93.0251 113.584 93.1538C112.711 93.54 111.697 93.421 110.717 93.3844C109.873 93.3533 109.055 93.3844 108.378 93.8476C107.437 94.4955 107.153 95.7403 107.001 96.8715C106.945 97.284 106.897 97.6971 106.857 98.1108C106.818 98.4952 106.786 98.8808 106.762 99.2676C106.679 100.547 106.667 101.831 106.727 103.112C106.737 103.346 106.749 103.58 106.765 103.815C103.774 103.743 101.049 102.184 98.4695 100.668C97.88 100.322 97.2723 99.9577 96.8897 99.3866C96.5372 98.8257 96.388 98.1608 96.4669 97.503C96.4669 97.4097 96.4834 97.32 96.4962 97.2248C96.5782 96.6816 96.7187 96.1489 96.9154 95.6359C97.7223 93.4511 98.9118 91.4273 100.428 89.6594C101.083 88.8942 101.821 88.1456 102.127 87.1846C102.26 86.7654 102.31 86.3206 102.445 85.9032C103.053 84.0947 105.246 83.2398 105.996 81.4844C106.179 81.0652 106.264 80.6058 106.491 80.2031C106.695 79.8684 106.959 79.5737 107.269 79.3336C107.402 79.2219 107.541 79.1139 107.679 79.0059C108.965 77.9979 110.204 76.9332 111.396 75.8117C111.618 75.603 111.838 75.3919 112.055 75.1783C112.026 76.0068 112.092 76.8359 112.251 77.6495Z" fill="#4C4981"/>
<path d="M130.697 64.6567C130.433 64.9349 130.148 65.1967 129.868 65.4566L129.793 65.5243L129.496 65.7989C128.958 66.2634 128.492 66.8057 128.114 67.4079L128.083 67.4592C127.15 69.1304 127.496 71.1879 127.755 73.0861C128.078 75.4516 128.223 77.8379 128.189 80.225C128.142 83.5199 127.754 86.7928 127.746 90.084C127.746 90.8309 127.763 91.5759 127.796 92.3227C127.849 93.5364 127.94 94.7481 128.05 95.9599C128.169 97.2889 128.312 98.616 128.446 99.9431C128.552 100.97 128.652 101.995 128.737 103.02C128.779 103.551 128.819 104.08 128.852 104.611C128.89 105.233 128.921 105.857 128.94 106.48C128.953 106.875 128.96 107.269 128.96 107.664C128.96 107.889 128.96 108.113 128.96 108.336C128.96 108.764 128.948 109.191 128.925 109.617C128.901 110.165 128.863 110.714 128.813 111.265C128.757 111.863 128.656 112.517 128.235 112.938C128.209 112.963 128.182 112.987 128.154 113.011L127.561 112.938C123.473 112.448 119.345 112.375 115.242 112.718C115.332 112.099 115.414 111.483 115.495 110.862C115.531 110.569 115.568 110.274 115.603 109.98C115.643 109.643 115.682 109.306 115.718 108.969C115.76 108.603 115.799 108.237 115.835 107.871C115.93 106.928 116.014 105.984 116.086 105.039C116.192 103.661 116.273 102.281 116.328 100.899C116.355 100.238 116.375 99.5776 116.39 98.9162C116.411 98.0961 116.42 97.2754 116.419 96.4542C116.419 95.6561 116.412 94.8567 116.399 94.0562C116.399 93.7926 116.388 93.529 116.366 93.2673C116.35 93.0316 116.318 92.7973 116.269 92.5662C116.133 92.0333 115.949 91.5138 115.72 91.0139C115.68 90.9187 115.641 90.8309 115.603 90.7302C115.581 90.6808 115.561 90.6295 115.541 90.5801C116.595 89.6411 117.345 88.3835 118.067 87.1461C119.236 85.1527 120.433 83.0714 120.629 80.7687C120.825 78.4659 119.681 75.8794 117.481 75.1765C116.882 74.9935 116.249 74.9422 115.632 74.8342C115.05 74.7317 113.836 74.4992 113.163 74.0819C112.797 74.4577 112.431 74.8269 112.064 75.1893C112.087 74.6363 112.222 74.0937 112.462 73.595L112.722 73.6078C112.7 73.5492 112.69 73.4871 112.692 73.4247C112.692 73.2289 112.828 73.0074 113.117 72.7621C113.979 72.0299 115.336 71.867 115.879 70.8767C116.106 70.4648 116.145 69.9743 116.328 69.5423C116.853 68.3103 118.361 67.8564 119.269 66.8716C120.177 65.8868 120.404 64.4919 121.138 63.3936C121.687 62.5916 122.447 61.9578 123.335 61.5631C123.408 61.5284 123.483 61.4936 123.558 61.4625C125.077 60.8126 126.882 60.6644 128.457 60.668C129.068 60.668 130.653 60.6863 131.429 60.9957C131.555 61.0407 131.67 61.1111 131.768 61.2025C132.595 62.1031 131.308 64.005 130.697 64.6567Z" fill="#4C4981"/>
<path d="M112.524 73.4668C113.938 73.0411 115.423 72.9007 116.891 73.0538C118.36 73.2068 119.784 73.6502 121.08 74.3583C122.398 75.0905 123.58 76.1119 124.305 77.4299C125.394 79.4068 125.347 81.7901 125.27 84.0471C125.231 85.1765 125.182 86.3462 124.684 87.3603C124.107 88.5336 123.02 89.339 121.911 89.998C121.216 90.4413 120.454 90.7707 119.656 90.9736C118.425 91.2409 117.148 91.0139 115.909 90.7906C114.561 90.5417 113.115 90.2414 112.18 89.2383C111.631 88.6562 111.33 87.9002 111.034 87.1607C110.608 86.0929 110.181 85.0264 109.753 83.961C109.011 82.1104 108.76 80.571 109.74 78.7679C110.185 77.946 110.728 77.1772 111.168 76.3499C111.387 75.9288 112.174 73.5748 112.524 73.4668Z" fill="#4C4981"/>
<path d="M189.456 105.11V110.584C185.701 112.143 181.673 112.94 177.607 112.927H128.241C128.215 112.952 128.188 112.976 128.16 113L127.567 112.927H39.753C32.3852 112.927 25.5575 110.939 19.958 107.552V99.1961L62.1911 94.3215H62.2241L86.8186 96.4046L93.1832 96.9538L96.4891 97.2339L103.331 97.8141L106.851 98.1125L111.977 98.5481L112.698 98.6085L116.392 98.9216L121.404 99.3334L128.451 99.9302L140.199 100.928L148.464 101.629L162.035 102.78L164.616 102.998L164.895 103.022L165.136 103.042L168.545 103.331L172.286 103.65L172.72 103.686L189.456 105.11Z" fill="#504F60"/>
<path d="M139.849 104.909L86.9226 95.8757L84.8706 106.253L109.132 109.158L116.602 110.093L137.151 106.046L139.849 104.909Z" fill="#9C9CA1"/>
<path d="M112.453 109.573L138.969 104.589C139.102 104.564 139.238 104.568 139.369 104.601C139.5 104.635 139.622 104.697 139.726 104.784C139.83 104.87 139.913 104.978 139.97 105.1C140.028 105.223 140.057 105.356 140.056 105.491C140.057 105.706 139.982 105.913 139.846 106.078C139.709 106.243 139.518 106.355 139.308 106.394L113.412 111.243L112.453 109.573Z" fill="#9C9CA1"/>
<path d="M123.955 93.8988C124.781 93.8219 125.617 93.6919 126.361 93.3258C127.276 92.87 127.988 92.0847 128.835 91.5063C130.699 90.2249 133.192 90.0529 135.328 90.7887C137.464 91.5246 139.247 93.1007 140.496 94.9824C141.325 96.2363 141.947 97.8362 141.361 99.22C141.161 99.643 140.907 100.039 140.607 100.399L139.081 102.394C138.791 102.814 138.442 103.189 138.045 103.509C137.474 103.924 136.763 104.095 136.064 104.197C134.206 104.468 132.315 104.314 130.443 104.439C127.226 104.653 124.085 105.689 120.862 105.654C119.009 105.634 117.181 105.261 115.37 104.887L107.358 103.24C105.963 102.954 104.387 102.537 103.73 101.272C103.436 100.703 103.381 100.044 103.346 99.4031C103.251 97.6385 103.346 95.6762 104.569 94.404C105.718 93.2105 107.536 92.8334 108.909 91.9511C110.589 90.8693 111.144 91.2189 112.916 92.0316C116.372 93.5972 120.176 94.2404 123.955 93.8988Z" fill="#AE6E79"/>
<path opacity="0.05" d="M123.955 93.8988C124.781 93.8219 125.617 93.6919 126.361 93.3258C127.276 92.87 127.988 92.0847 128.835 91.5063C130.699 90.2249 133.192 90.0529 135.328 90.7887C137.464 91.5246 139.247 93.1007 140.496 94.9824C141.325 96.2363 141.947 97.8362 141.361 99.22C141.161 99.643 140.907 100.039 140.607 100.399L139.081 102.394C138.791 102.814 138.442 103.189 138.045 103.509C137.474 103.924 136.763 104.095 136.064 104.197C134.206 104.468 132.315 104.314 130.443 104.439C127.226 104.653 124.085 105.689 120.862 105.654C119.009 105.634 117.181 105.261 115.37 104.887L107.358 103.24C105.963 102.954 104.387 102.537 103.73 101.272C103.436 100.703 103.381 100.044 103.346 99.4031C103.251 97.6385 103.346 95.6762 104.569 94.404C105.718 93.2105 107.536 92.8334 108.909 91.9511C110.589 90.8693 111.144 91.2189 112.916 92.0316C116.372 93.5972 120.176 94.2404 123.955 93.8988Z" fill="black"/>
<path d="M156.13 91.3892C153.882 92.2587 151.621 93.1318 149.267 93.6498C145.321 94.5193 141.191 94.382 137.276 95.376C135.207 95.9032 133.152 96.7525 131.027 96.5804C130.076 96.5036 129.159 96.2143 128.235 95.9947C123.042 94.7133 117.139 95.1289 112.921 98.4238C111.479 99.5495 110.298 100.953 109.227 102.451C108.998 102.774 108.843 103.144 108.774 103.534C108.704 103.925 108.722 104.325 108.825 104.708C108.928 105.091 109.115 105.446 109.372 105.748C109.628 106.05 109.948 106.292 110.309 106.456C111.949 107.21 113.706 107.679 115.504 107.842C117.907 108.054 120.322 107.713 122.712 107.373C126.26 106.87 129.809 106.364 133.348 105.799C134.618 105.596 135.888 105.385 137.166 105.224C146.361 104.062 155.722 105.475 164.94 104.505C165.872 104.406 166.82 104.278 167.667 103.88C169.813 102.874 170.875 100.219 170.432 97.8874C169.989 95.5554 168.279 93.6169 166.221 92.4271C164.497 91.4258 162.637 91.0212 160.717 90.5966C158.934 90.1811 157.847 90.7302 156.13 91.3892Z" fill="#AE6E79"/>
<path opacity="0.1" d="M175.85 77.4481C176.864 78.7771 177.08 80.56 176.97 82.2239C176.86 83.8878 176.465 85.5334 176.406 87.2047C176.326 89.4965 176.879 91.7809 176.785 94.0654C176.719 95.6634 176.34 97.2303 175.892 98.7643C175.363 100.575 174.598 102.52 172.927 103.39C170.708 104.545 166.055 103.895 163.721 104.799C163.933 103.476 165.969 101.559 166.181 100.236C166.328 99.3207 166.476 98.3799 166.318 97.4628C166.117 96.2931 165.431 95.2552 164.616 94.3912C163.32 93.0165 161.629 91.9823 159.771 91.6455C157.913 91.3086 153.364 91.5851 151.878 92.7584C151.695 91.5466 155.099 90.3788 156.297 90.117C156.893 89.9834 157.578 90.0584 158.056 89.6795C158.971 88.962 158.306 87.5323 158.35 86.3846C158.385 85.4694 158.92 84.631 159.028 83.7158C159.211 82.2514 158.255 80.7595 158.63 79.3226C158.77 78.7917 159.079 78.3249 159.293 77.8197C159.945 76.273 159.659 74.5084 159.311 72.8646C159.095 71.8322 158.885 70.668 159.46 69.7875C159.992 68.9656 161.504 71.8926 162.473 71.7571C165.67 71.3087 168.564 68.9382 171.147 70.8785C172.463 71.867 172.635 72.892 173.161 74.3034C173.672 75.6469 174.995 76.3352 175.85 77.4481Z" fill="black"/>
<path d="M176.399 77.4481C177.413 78.777 177.629 80.5599 177.519 82.2239C177.41 83.8878 177.014 85.5334 176.956 87.2046C176.875 89.4964 177.428 91.7809 177.335 94.0653C177.269 95.6633 176.89 97.2302 176.441 98.7642C175.912 100.575 175.147 102.52 173.476 103.39C171.257 104.545 166.604 103.895 164.27 104.799C164.483 103.476 166.518 101.559 166.73 100.236C166.877 99.3207 167.025 98.3798 166.868 97.4627C166.666 96.293 165.98 95.2551 165.165 94.3911C163.869 93.0164 162.178 91.9822 160.32 91.6454C158.462 91.3086 153.913 91.585 152.427 92.7583C152.244 91.5466 155.649 90.3787 156.846 90.1169C157.443 89.9833 158.127 90.0584 158.605 89.6795C159.52 88.9619 158.856 87.5323 158.9 86.3846C158.934 85.4693 159.469 84.631 159.577 83.7157C159.76 82.2513 158.804 80.7595 159.18 79.3225C159.319 78.7917 159.628 78.3249 159.842 77.8197C160.494 76.2729 160.208 74.5083 159.861 72.8645C159.645 71.8321 159.434 70.668 160.009 69.7875C160.542 68.9656 161.583 68.6544 162.551 68.5171C165.794 68.0786 169.079 68.9261 171.704 70.8784C173.02 71.8669 173.192 72.892 173.717 74.3033C174.221 75.6469 175.544 76.3352 176.399 77.4481Z" fill="#4C4981"/>
<path d="M55.281 68.7754L65.2334 105.557C65.3555 106.008 65.612 106.411 65.9688 106.712C66.3256 107.013 66.7657 107.198 67.2304 107.243L112.026 111.547C112.391 111.582 112.76 111.529 113.1 111.393C113.441 111.256 113.743 111.04 113.983 110.763C114.223 110.485 114.393 110.154 114.479 109.798C114.564 109.441 114.563 109.069 114.475 108.713L103.577 64.3456C103.447 63.8182 103.135 63.3539 102.695 63.0352C102.255 62.7164 101.717 62.5639 101.175 62.6048L57.3183 65.885C56.9816 65.9112 56.6548 66.0113 56.3612 66.1783C56.0676 66.3453 55.8145 66.575 55.6199 66.8511C55.4253 67.1271 55.2941 67.4427 55.2355 67.7753C55.1769 68.108 55.1924 68.4494 55.281 68.7754Z" fill="#9C9CA1"/>
<path d="M144.08 75.9528C146.799 75.9528 149.004 73.7195 149.004 70.9647C149.004 68.2098 146.799 65.9766 144.08 65.9766C141.36 65.9766 139.156 68.2098 139.156 70.9647C139.156 73.7195 141.36 75.9528 144.08 75.9528Z" fill="white"/>
<path d="M148.123 61.8651C148.123 61.8651 149.161 64.9513 146.099 66.2492L145.707 66.9338L147.625 68.8265C147.625 68.8265 149.99 64.512 149.734 62.9799C149.734 62.9799 149.368 61.424 148.123 61.8651Z" fill="white"/>
<path d="M144.646 75.9525C147.268 75.9525 149.394 73.8266 149.394 71.2042C149.394 68.5818 147.268 66.4559 144.646 66.4559C142.023 66.4559 139.897 68.5818 139.897 71.2042C139.897 73.8266 142.023 75.9525 144.646 75.9525Z" fill="#F0810F"/>
<path d="M149.758 63.681L149.004 62.4363L147.906 62.2807C148.14 58.1822 147.076 56.9613 147.076 56.9613L146.829 56.9375L145.753 56.8332L143.729 54.7318V54.135C146.573 54.4737 148.145 55.8246 148.995 57.4079C150.496 60.1866 149.758 63.681 149.758 63.681Z" fill="#F0810F"/>
<path opacity="0.1" d="M146.839 56.1833V56.9374L145.762 56.8331L143.738 54.7317C143.738 54.7317 146.87 55.4328 146.839 56.1833Z" fill="black" stroke="#4C4981" stroke-miterlimit="10"/>
<path opacity="0.1" d="M149.758 63.6809L149.004 62.4362V57.4152C150.496 60.1865 149.758 63.6809 149.758 63.6809Z" fill="black" stroke="#4C4981" stroke-miterlimit="10"/>
<path d="M135.872 73.1563C137.135 72.4269 137.081 69.9675 135.75 67.6632C134.42 65.3588 132.317 64.0821 131.054 64.8115C129.79 65.5409 129.845 68.0002 131.175 70.3046C132.505 72.6089 134.608 73.8857 135.872 73.1563Z" fill="white"/>
<path d="M134.175 68.5812C135.506 70.8858 137.139 72.4253 135.876 73.1575C134.613 73.8897 130.933 73.5236 129.603 71.2172C128.272 68.9107 129.48 65.7257 130.743 64.9935C132.006 64.2613 132.843 66.2712 134.175 68.5812Z" fill="#F0810F"/>
<path opacity="0.1" d="M146.024 51.9787C146.024 59.3427 140.984 66.4396 133.62 66.4396C130.084 66.4396 126.692 65.0346 124.191 62.5338C121.69 60.033 120.285 56.6411 120.285 53.1044C120.285 49.5677 121.69 46.1759 124.191 43.6751C126.692 41.1742 130.084 39.7693 133.62 39.7693C140.984 39.7766 146.024 44.6128 146.024 51.9787Z" fill="black"/>
<path d="M133.62 66.0808C140.985 66.0808 146.955 60.1105 146.955 52.7457C146.955 45.3809 140.985 39.4105 133.62 39.4105C126.255 39.4105 120.285 45.3809 120.285 52.7457C120.285 60.1105 126.255 66.0808 133.62 66.0808Z" fill="#AE6E79"/>
<path d="M132.449 46.8368C134.036 47.4207 134.975 49.0608 136.399 49.9742C138.413 51.2556 141.034 50.9242 143.333 50.2909C144.614 49.9413 145.954 49.5148 147.215 49.9028C147.401 49.985 147.606 50.0141 147.807 49.987C148.081 49.9083 148.217 49.6045 148.306 49.3336C149.866 44.6841 149.165 39.4178 146.811 35.1161C146.203 34.0068 145.475 32.9342 144.471 32.1635C143.681 31.5576 142.751 31.1604 141.814 30.8218C140.101 30.2067 138.329 29.7693 136.527 29.5166C136.209 29.4588 135.884 29.4483 135.562 29.4855C135.121 29.5569 134.726 29.7949 134.332 30.0072C132.647 30.9108 130.778 31.4185 128.866 31.4917C126.304 31.5888 123.375 30.9847 121.4 32.6285C119.02 34.5999 119.613 38.4458 118.07 41.122C117.049 42.892 115.079 44.1771 114.755 46.1924C114.671 46.8084 114.71 47.4351 114.871 48.0357C115.625 51.1366 118.627 53.5382 121.826 53.5949C122.318 53.6324 122.81 53.5316 123.247 53.3039C123.533 53.1085 123.786 52.868 123.996 52.5918C126.091 50.1097 128.489 45.3797 132.449 46.8368Z" fill="#444053"/>
<path opacity="0.1" d="M148.306 47.9846C148.217 48.2555 148.081 48.5593 147.807 48.6381C147.606 48.6651 147.401 48.636 147.215 48.5539C145.954 48.1658 144.607 48.5923 143.335 48.9419C141.034 49.5753 138.407 49.9139 136.401 48.6252C134.975 47.71 134.038 46.0626 132.449 45.4878C128.49 44.0234 126.092 48.7607 123.99 51.2429C123.781 51.519 123.528 51.7595 123.241 51.9549C122.804 52.1826 122.312 52.2835 121.821 52.246C118.632 52.1892 115.628 49.7876 114.865 46.6868C114.823 46.5037 114.786 46.3207 114.759 46.1376C114.759 46.1541 114.759 46.1687 114.75 46.1852C114.665 46.8012 114.705 47.4278 114.865 48.0285C115.619 51.1294 118.623 53.531 121.821 53.5877C122.312 53.6252 122.804 53.5244 123.241 53.2967C123.528 53.1013 123.781 52.8608 123.99 52.5846C126.092 50.1025 128.49 45.3725 132.449 46.8295C134.038 47.4135 134.975 49.0536 136.401 49.967C138.414 51.2483 141.034 50.917 143.335 50.2837C144.616 49.9341 145.954 49.5075 147.215 49.8956C147.401 49.9778 147.606 50.0069 147.807 49.9798C148.081 49.9011 148.217 49.5972 148.306 49.3263C148.935 47.4239 149.213 45.423 149.126 43.4211C149.073 44.9737 148.796 46.5104 148.306 47.9846Z" fill="black"/>
</g>
<defs>
<clipPath id="clip0">
<rect width="209.408" height="113" rx="20" fill="white"/>
</clipPath>
</defs>
</svg>
