<svg width="60" height="60" viewBox="0 0 60 60" fill="none" xmlns="http://www.w3.org/2000/svg">
<g clip-path="url(#clip0)">
<path d="M18.8279 17.62V34.432C18.8279 37.288 18.048 39.472 16.488 40.984C14.952 42.496 12.8279 43.252 10.1159 43.252C7.23595 43.252 4.93195 42.448 3.20395 40.84C1.49995 39.232 0.647949 36.916 0.647949 33.892H7.63195C7.65595 35.884 8.38795 36.88 9.82795 36.88C11.1239 36.88 11.7719 36.064 11.7719 34.432V17.62H18.8279ZM33.0834 17.62C35.7474 17.62 38.0754 18.16 40.0674 19.24C42.0834 20.296 43.6313 21.784 44.7113 23.704C45.7914 25.624 46.3314 27.82 46.3314 30.292C46.3314 32.74 45.7794 34.924 44.6754 36.844C43.5953 38.764 42.0473 40.276 40.0313 41.38C38.0393 42.46 35.7234 43 33.0834 43H23.0393V17.62H33.0834ZM32.5433 36.772C34.6073 36.772 36.2274 36.208 37.4034 35.08C38.5793 33.952 39.1674 32.356 39.1674 30.292C39.1674 28.204 38.5793 26.596 37.4034 25.468C36.2274 24.316 34.6073 23.74 32.5433 23.74H30.0953V36.772H32.5433Z" fill="#EEFBFB"/>
<path d="M54.8277 44.4445C57.6843 44.4445 60.0001 41.9572 60.0001 38.8889C60.0001 35.8207 57.6843 33.3333 54.8277 33.3333C51.971 33.3333 49.6553 35.8207 49.6553 38.8889C49.6553 41.9572 51.971 44.4445 54.8277 44.4445Z" fill="#F0810F"/>
</g>
<defs>
<clipPath id="clip0">
<rect width="60" height="60" fill="white"/>
</clipPath>
</defs>
</svg>
