<svg width="300" height="300" viewBox="0 0 300 300" fill="none" xmlns="http://www.w3.org/2000/svg">
<circle cx="150" cy="150" r="150" fill="#063852"/>
<circle cx="150" cy="163.636" r="136.364" fill="#F0810F"/>
<mask id="mask0" mask-type="alpha" maskUnits="userSpaceOnUse" x="13" y="27" width="274" height="273">
<circle cx="150" cy="163.636" r="136.364" fill="#C4C4C4"/>
</mask>
<g mask="url(#mask0)">
<g clip-path="url(#clip0)">
<path fill-rule="evenodd" clip-rule="evenodd" d="M280.286 184.566C276.955 184.914 273.624 185.262 270.292 185.61C254.34 186.91 238.393 189.623 222.562 191.251C222.168 190.568 221.396 190.681 220.928 191.155C219.348 191.008 217.578 189.721 216.147 191.059C216.1 191.052 216.054 191.044 216.007 191.039C213.459 185.828 211.698 180.268 209.989 174.701C208.898 171.279 207.429 167.966 204.718 165.668C200.088 162.243 189.481 155.297 184.047 155.59C183.956 154.553 183.502 153.483 182.757 152.793C184.399 149.809 177.835 147.862 177.372 148.208C177.668 138.242 173.27 129.585 163.57 127.6C154.88 125.67 142.521 125.346 137.848 135.025C137.334 134.964 132.083 134.935 131.575 134.995C130.784 133.929 122.109 144.034 125.665 147.552C93.8763 162.541 75.8012 160.751 67.0026 202.888C65.8131 206.846 65.7264 211.177 64.4704 215.048C60.0018 226.17 56.3771 238.013 55.4752 250.115C53.2965 250.709 53.046 254.804 55.5695 255.396C56.5334 255.623 57.3395 255.932 58.0423 256.518C57.4929 266.435 59.7432 289.089 61.1611 289.02C64.0521 298.827 76.9478 301.595 86.0776 298.148C84.5037 301.304 86.0776 303.288 86.0776 304.975C118.929 306.299 154.848 305.536 187.69 307.353C191.892 307.29 196.309 308.453 200.453 307.783C202.981 307.137 202.985 302.903 200.421 302.378L211.622 299.785C211.371 299.685 216.238 296.235 219.916 289.787C223.34 282.574 221.011 273.868 222.562 266.021C234.679 264.965 246.997 264.514 258.981 262.326C260.616 267.537 267.689 261.305 269.938 258.798C269.935 258.794 269.931 258.791 269.929 258.786C271.017 258.47 271.89 257.383 271.919 256.096C272.682 254.933 272.842 253.294 272.111 252.172C275.464 231.542 280.578 210.48 282.426 189.657C283.08 189.503 283.695 189.198 284.217 188.728L284.174 188.683C285.058 187.632 285.23 185.82 283.757 184.927C282.569 184.207 281.576 184.43 280.286 184.566Z" fill="#EDB98A"/>
<path fill-rule="evenodd" clip-rule="evenodd" d="M153.599 261.774L156.165 263.514L177.16 270.726L189.99 272.465L200.488 270.726V289.871L202.588 307.772C201.655 309.596 192.789 309.596 175.994 307.772C165.287 306.61 126.157 306.045 117.248 305.797L116.743 305.783C106.273 305.461 95.9317 305.461 85.7175 305.783V299.069L114.877 283.654L141.003 267.99L153.599 261.774ZM138.724 133.461L140.652 134.995L136.442 142.367L156.949 160.048V174.171L163.442 180.715L167.154 174.171L172.382 166.758L176.099 154.743L174.833 146.827L177.379 146.572C177.391 147.113 177.388 147.659 177.372 148.208C177.836 147.862 184.4 149.809 182.758 152.793C183.503 153.483 183.957 154.553 184.047 155.589C189.482 155.297 200.089 162.243 204.718 165.668C207.43 167.966 208.898 171.279 209.989 174.701L210.246 175.537L210.511 176.393L210.778 177.249C212.255 181.957 213.849 186.623 216.008 191.039C216.054 191.044 216.1 191.052 216.147 191.059C217.578 189.721 219.349 191.008 220.929 191.155C221.386 190.691 222.132 190.572 222.534 191.205L222.562 191.251L202.881 195.384L189.896 243.929L178.59 234.146L172.52 235.108L156.492 241.269L137.851 246.43L95.2945 258.935H89.8752L58.3403 250.819L55.4983 249.819C56.4367 237.82 60.0386 226.079 64.4709 215.048C65.727 211.177 65.8137 206.846 67.0032 202.888C75.8018 160.751 93.8769 162.539 125.665 147.552C122.11 144.033 130.785 133.929 131.575 134.995L131.626 134.99L131.733 134.984L131.872 134.979C133.112 134.941 137.387 134.97 137.849 135.025C138.116 134.471 138.408 133.95 138.724 133.461Z" fill="black"/>
<path fill-rule="evenodd" clip-rule="evenodd" d="M283.432 186.04L282.846 189.522C282.705 189.57 282.564 189.611 282.42 189.645C282.236 191.721 282.02 193.799 281.776 195.879L278.141 217.47C277.514 221.29 276.918 225.118 276.328 228.947L275.545 233.061L275.06 235.618C274.013 241.154 272.998 246.671 272.104 252.159C272.239 252.366 272.344 252.59 272.42 252.825L272.352 253.135L272.303 253.342L272.254 253.545C271.551 256.43 270.326 259.226 267.439 260.075C265.262 260.715 262.872 260.773 260.624 261.026L260.375 261.054L221.031 265.77C216.277 266.34 211.526 266.927 206.775 267.52L202.656 268.035C196.914 268.743 191.141 269.301 185.484 270.583C185.277 270.63 185.104 270.72 184.964 270.836C186.104 266.24 187.193 261.651 188.182 257.008C189.293 251.784 190.349 246.549 191.539 241.343C193.935 230.855 196.623 220.437 199.563 210.108C200.181 207.94 200.812 205.776 201.458 203.618L201.911 202.11L202.259 200.907C202.798 199.073 203.465 197.189 205.047 196.178C206.897 194.995 209.421 194.798 211.52 194.389L212.941 194.104C215.068 193.682 217.198 193.275 219.33 192.884C229.537 191.012 239.801 189.511 250.104 188.384C260.825 187.21 271.583 186.448 282.354 186.075L283.432 186.04ZM185.78 258.031L185.881 258.039L184.411 270.561C184.176 270.386 183.878 270.279 183.513 270.28C178.692 270.295 174.072 268.653 169.602 266.847L168.922 266.57L167.024 265.793C165.095 265.006 163.156 264.235 161.181 263.596L160.382 263.339L159.976 263.212C158.481 262.746 156.907 262.324 155.352 262.218L155.14 262.206L155.592 261.952C155.659 261.915 155.717 261.874 155.768 261.829C156.625 261.897 157.483 261.878 158.386 261.705C160.084 261.379 161.736 260.748 163.253 259.872L163.931 259.48L164.208 259.324L164.391 259.223L164.574 259.124C165.875 258.432 167.122 257.999 168.766 258.367C170.633 258.786 172.27 259.859 173.952 260.765L174.252 260.924L174.452 261.027L174.657 261.129L174.864 261.231C177.14 262.322 180.763 263.5 181.635 260.202C181.986 258.877 181.711 257.636 181.103 256.547C182.237 256.444 184.262 257.868 185.78 258.031ZM242.437 216.775L242.464 216.924C242.786 218.771 241.978 220.538 240.757 221.826C239.756 222.882 237.982 223.469 237.48 224.989C237.194 225.853 237.499 226.673 238.086 227.245L237.95 227.316L237.818 227.387L237.689 227.46L237.563 227.534L237.44 227.607C235.445 228.83 233.82 230.817 235.62 233.217C237.661 235.94 241.928 236.028 244.933 235.815L245.135 235.8C248.05 235.567 251.502 234.524 253.082 231.655C253.807 230.339 253.728 228.748 252.717 227.621C252.107 226.943 251.02 226.245 250.023 226.163C250.066 225.564 250 224.985 249.803 224.497C249.375 223.443 248.238 222.732 247.14 222.706C247.23 220.466 245.546 218.255 244.307 216.464L244.18 216.281L244.058 216.1C243.489 215.256 242.272 215.729 242.437 216.775ZM244.1 219.158L245.229 223.667L245.209 223.705C244.812 224.51 245.854 225.424 246.472 224.747L246.535 224.676C247.27 223.867 248.396 224.953 248.41 225.813C248.43 227.025 247.69 227.96 246.809 228.579L246.747 228.621L246.585 228.73C245.863 229.239 246.409 230.304 247.204 230.174C248.188 230.013 248.994 229.181 249.491 228.144C250.022 228.306 250.626 228.286 251.185 228.62C252.594 229.46 251.783 230.93 250.866 231.817L250.829 231.853L250.754 231.922C249.07 233.452 246.779 233.984 244.618 234.098L244.494 234.104C242.312 234.204 239.469 234.236 237.598 232.868C236.434 232.017 236.098 230.81 237.083 229.666C237.639 229.02 238.202 228.368 238.781 227.738C239.648 228.179 240.422 228 241.307 227.583C241.421 227.53 241.358 227.344 241.247 227.344C240.758 227.344 238.964 226.376 238.877 225.758C238.796 225.186 239.789 224.704 240.271 224.427L240.341 224.386L240.402 224.349C240.906 224.023 241.382 223.643 241.816 223.217C242.918 222.136 243.72 220.779 244.069 219.295L244.1 219.158Z" fill="#E6E6E6"/>
<path fill-rule="evenodd" clip-rule="evenodd" d="M138.454 132.777C139.444 130.125 142.79 131.157 142.416 133.942C142.193 135.61 141.335 137.372 140.566 138.834C139.939 140.025 139.223 141.186 138.254 142.078C139.981 143.795 141.772 145.449 143.609 147.019C145.614 148.733 147.722 150.312 149.902 151.763C151.812 153.036 153.809 154.164 155.61 155.617C157.285 156.968 158.81 158.591 159.586 160.711C160.413 162.969 160.054 165.3 159.445 167.557L159.375 167.812C158.754 170.047 157.676 172.741 159.17 174.848C159.929 175.92 161.035 176.679 161.989 177.536C162.838 178.299 163.634 179.127 164.364 180.016C165.956 181.956 167.251 184.14 168.068 186.571L168.141 186.793C168.841 188.945 169.354 191.583 168.407 193.697C168.136 194.303 167.26 194.106 167.108 193.516C166.763 192.179 166.782 190.779 166.494 189.424C166.193 188.014 165.694 186.676 165.042 185.41C163.781 182.961 162.073 180.868 160.053 179.1L159.449 178.575C157.875 177.199 156.428 175.738 156.108 173.458C155.767 171.019 156.683 168.696 157.273 166.387C157.684 164.778 157.817 163.237 157.373 161.783C156.831 162.726 156.091 163.622 155.506 164.42C154.34 166.012 153.164 167.594 151.991 169.179C150.787 170.804 149.613 172.454 148.496 174.148C147.996 174.906 147.501 175.668 147.009 176.431C146.638 177.003 146.121 177.576 145.717 178.161C145.815 178.474 145.807 178.835 145.63 179.092C143.487 182.176 140.439 175.739 139.644 174.112C138.025 170.799 136.821 167.28 135.195 163.969C133.512 160.535 131.596 157.194 129.46 154.059C128.168 152.163 126.72 150.382 125.538 148.426C122.753 151.117 119.089 152.922 115.723 154.557C112.025 156.355 108.184 157.823 104.392 159.383L103.272 159.847C96.7393 162.564 90.0469 165.549 84.617 170.376C78.2363 176.048 74.4615 183.954 71.6512 192.141C68.4162 201.565 65.7399 211.243 63.245 220.917C61.9683 225.866 60.7569 230.838 59.6181 235.825C58.6145 240.219 57.7826 244.656 56.6209 249.005C58.977 248.916 61.6641 249.889 63.6756 250.169C72.843 251.448 81.887 253.486 90.5421 257.017C91.6112 257.453 91.9206 258.591 91.6877 259.513C92.3043 259.328 92.9204 259.14 93.5368 258.955C92.8614 257.852 93.1838 255.88 93.237 254.657L93.2402 254.573C93.2947 252.944 93.4607 251.312 93.5682 249.686C93.7729 246.587 94.0396 243.509 94.394 240.426L94.4844 239.655C94.8861 236.302 95.1831 232.928 95.6214 229.58L95.6732 229.198C95.4631 228.341 95.2184 227.494 94.9615 226.652C94.2771 224.409 93.311 222.296 92.4645 220.123C92.3647 219.868 92.7066 219.721 92.8665 219.874C94.3002 221.249 95.439 222.992 96.3539 224.816C96.3698 224.73 96.3837 224.644 96.4003 224.558L96.5047 224.01C96.7622 222.675 97.0753 221.269 97.8441 220.185C97.9259 220.071 98.0879 220.046 98.1653 220.185C98.901 221.512 98.9833 223.193 99.0965 224.704C99.2246 226.411 99.2406 228.141 99.2181 229.854C99.1739 233.201 98.9525 236.559 98.7762 239.9C98.6032 243.184 98.2634 246.427 97.8256 249.678L97.7424 250.289C97.5283 251.836 97.353 253.403 97.0707 254.94L96.991 255.359C96.84 256.121 96.7472 257.196 96.4468 258.088C104.177 255.791 111.919 253.545 119.676 251.339C125.282 249.744 130.895 248.174 136.504 246.592C136.8 246.024 137.168 245.492 137.629 245.018C139.144 243.454 141.152 242.756 142.995 243.96C143.144 244.058 143.157 244.308 142.995 244.403C142.642 244.609 142.288 244.82 141.941 245.04L145.309 244.067C147.827 243.34 150.375 242.43 152.952 241.923C157.698 239.427 162.804 237.62 167.803 235.834L168.392 235.621C170.952 234.692 173.6 233.649 176.246 233.134C178.182 232.757 180.455 233.212 181.233 235.327C182.219 236.019 183.147 236.833 184.042 237.633C184.689 238.212 185.31 238.827 185.94 239.426L186.056 239.534C186.572 240.01 186.98 240.33 187.107 241.089C187.172 241.481 186.938 242.011 186.485 241.96C185.097 241.801 183.968 240.086 183.026 239.062C182.299 238.27 181.565 237.452 180.902 236.582C180.515 236.806 179.984 236.766 179.738 236.268C178.461 233.691 174.962 235.478 173.026 236.088L170.252 236.963C168.865 237.401 167.479 237.842 166.095 238.29C162.291 239.521 158.507 240.899 154.669 242.029C155.013 242.431 154.965 243.147 154.313 243.42C151.309 244.676 148.013 245.325 144.892 246.188C142.922 246.732 140.952 247.281 138.984 247.831C138.647 248.415 138.404 249.073 138.301 249.841C137.926 252.663 138.65 255.919 139.356 258.648L139.463 259.057C140.042 261.251 140.896 263.941 142.673 265.327C143.107 265.665 143.659 265.9 144.215 265.953C147.692 264.045 151.169 262.138 154.648 260.233C155.293 259.881 155.889 260.359 156.034 260.926C157.261 260.712 158.484 260.373 159.599 259.971C161.472 259.292 162.935 257.999 164.691 257.105C168.089 255.374 171.559 257.5 174.602 259.115L175.303 259.482C176.666 260.188 179.505 261.544 180.159 259.614C180.793 257.747 178.791 255.752 177.498 254.912C175.957 253.91 174.162 253.374 172.421 252.927C171.426 252.672 170.42 252.464 169.408 252.312C168.258 252.14 167.072 252.166 165.966 251.769C165.417 251.572 165.332 250.642 165.966 250.488C167.669 250.075 169.7 250.525 171.477 250.986L172.405 251.23C174.195 251.698 176.003 252.285 177.634 253.219C178.818 253.898 180.07 254.931 180.888 256.193C181.598 255.491 182.481 255.514 183.401 255.776L183.901 255.923C184.726 256.166 185.394 256.334 186.196 256.166C186.303 255.544 186.413 254.92 186.529 254.298C187.673 248.178 188.927 242.082 190.31 236.018C192.699 225.558 195.46 215.214 198.575 204.974L198.888 203.951C199.605 201.608 200.184 199.058 201.342 196.906C202.437 194.871 204.192 193.699 206.277 193.079C208.642 192.375 211.128 192.006 213.542 191.531C214.08 191.425 214.62 191.324 215.158 191.221C214.704 190.344 214.363 189.349 214.058 188.585L214.003 188.454C213.345 186.855 212.755 185.228 212.184 183.591L211.758 182.362C210.727 179.4 209.664 176.487 208.215 173.718C206.691 170.803 204.668 168.419 202.147 166.447C197.006 162.425 190.81 160.374 185.823 156.075C185.619 155.9 185.881 155.598 186.088 155.71C189.455 157.513 193.09 158.738 196.591 160.207L197.282 160.497C200.05 161.666 202.861 162.941 205.256 164.833C207.927 166.945 210.032 169.567 211.613 172.685C213.171 175.759 214.168 179.199 215.267 182.482L215.561 183.357C216.004 184.669 216.462 185.976 216.987 187.254C217.404 188.267 218.182 189.423 218.535 190.581C219.502 190.402 220.468 190.223 221.437 190.051C242.4 186.321 263.598 184.128 284.843 183.487C285.673 183.462 286.104 184.307 285.981 185.08C283.942 197.93 282.13 210.823 280.143 223.683C279.275 229.295 278.389 234.903 277.484 240.509C277.026 243.349 276.494 246.178 276.061 249.023C275.709 251.319 275.454 253.634 274.853 255.878C274.312 257.89 273.482 259.83 272.121 261.365C270.653 263.019 268.605 263.82 266.543 264.198C261.308 265.159 255.938 265.55 250.66 266.19L222.564 269.597C222.975 273.575 223.006 277.491 222.817 281.516L222.71 283.712C222.621 285.479 222.517 287.248 222.279 288.998C221.98 291.191 221.038 293.048 219.651 294.687C218.378 296.192 216.831 297.476 215.326 298.707C213.764 299.983 212.151 301.217 210.313 302.007L210.076 302.108C208.464 302.778 205.442 303.816 203.24 303.437C203.527 304.974 204.085 306.628 203.59 308.149C203.362 308.855 202.495 309.206 201.964 308.606C200.913 307.415 200.83 305.842 200.581 304.288C200.322 302.67 200.099 301.048 199.9 299.421C199.516 296.275 199.217 293.101 199.126 289.928C199.032 286.671 199.069 283.409 199.233 280.155C199.317 278.484 199.423 276.814 199.622 275.154C199.707 274.445 199.793 273.736 199.892 273.03C199.929 272.773 199.969 272.516 200.012 272.26L197.49 272.563C193.623 273.023 189.754 273.44 185.86 273.503C185.399 273.511 185.044 273.288 184.812 272.961C184.565 273.39 184.135 273.697 183.519 273.695C178.081 273.672 173.016 271.777 168.07 269.543C165.577 268.417 163.123 267.199 160.625 266.081C158.294 265.039 155.803 264.295 153.529 263.121L147.552 266.462C147.509 266.627 147.452 266.782 147.393 266.913C147.003 267.759 146.236 268.219 145.453 268.564C144.701 268.897 143.921 269 143.163 268.916C138.63 271.448 134.097 273.977 129.56 276.501L125.023 279.022C115.982 284.039 106.976 289.139 97.8788 294.038L97.2091 294.398C94.0666 296.076 90.6924 297.779 87.2052 299.049C87.1431 299.99 87.1823 300.906 87.2563 301.901L87.2741 302.118C87.3781 303.295 87.601 304.769 86.7152 305.606C86.2546 306.043 85.4315 306.044 85.1183 305.388C84.5498 304.196 85.0602 302.318 85.2403 301.024C85.3042 300.564 85.3821 300.09 85.4974 299.631C81.4995 300.9 77.3807 301.515 73.3123 300.803C69.3513 300.11 66.2836 297.45 63.8105 294.198C61.2003 290.765 59.3456 286.764 58.3505 282.474C57.218 277.595 57.144 272.555 57.1706 267.556C57.1988 262.233 57.3836 256.884 57.991 251.596C57.3254 251.429 56.5874 251.285 55.9148 251.335C55.5817 251.903 54.9356 252.142 54.3517 252.069C53.082 253.56 56.3025 255.086 57.3318 255.469C57.6891 255.6 57.6509 256.219 57.2387 256.2L56.979 256.187C55.3887 256.098 53.7457 255.809 52.8107 254.233C52.0614 252.97 52.2866 251.475 53.1797 250.445C53.7697 244.5 55.18 238.71 56.4926 232.911C57.7808 227.218 59.2133 221.562 60.7317 215.934L61.4124 213.415C63.8031 204.592 66.3019 195.697 69.5996 187.223C71.2463 182.993 73.1433 178.84 75.7146 175.151C78.1115 171.712 80.9413 168.77 84.1941 166.256C90.258 161.57 97.3734 158.738 104.365 156.042L104.678 155.921C108.301 154.524 111.915 153.11 115.496 151.597C118.664 150.259 121.699 148.561 124.851 147.204C124.749 147.005 124.649 146.805 124.554 146.602L124.496 146.654C124.486 146.662 124.476 146.671 124.466 146.679C124.148 146.913 123.682 146.798 123.421 146.535C122.683 145.793 122.933 144.97 123.425 144.2L123.489 144.101C124.092 143.203 124.628 142.252 125.185 141.32L125.533 140.737C126.466 139.18 127.446 137.613 128.691 136.326C129.267 135.73 129.897 135.284 130.565 134.951C130.508 134.823 131.009 134.559 131.152 134.692C133.27 133.866 135.705 134.039 138.014 134.266L138.454 132.777ZM221.204 269.762L218.26 270.119C215.022 270.511 211.782 270.891 208.541 271.268L201.502 272.083C201.485 272.51 201.436 272.929 201.427 273.251C201.381 274.917 201.346 276.583 201.314 278.248C201.249 281.586 201.321 284.929 201.526 288.261C201.726 291.489 201.99 294.719 202.399 297.927L202.483 298.567L202.531 298.904C202.865 298.939 203.193 299.108 203.465 299.455C204.061 300.213 206.217 299.476 207.058 299.157C208.443 298.631 209.747 297.744 210.949 296.855C212.124 295.987 213.182 294.974 214.199 293.907L215.03 293.029C215.858 292.154 216.687 291.22 217.193 290.118C217.881 288.622 217.97 286.788 218.172 285.16C218.419 283.157 218.715 281.155 219.027 279.163L221.204 269.762ZM135.744 248.742L135.438 248.828C124.346 251.969 113.27 255.203 102.144 258.206C96.6379 259.692 91.1055 261.071 85.5926 262.528L84.7 262.766C80.3509 263.938 75.9496 265.348 72.6191 268.71C72.4962 268.834 72.3177 268.643 72.4334 268.512C76.0228 264.44 81.1278 262.715 86.0292 261.221C86.9353 260.945 87.8425 260.674 88.7488 260.4C82.0827 257.867 75.3116 255.664 68.384 254.092C66.6002 253.687 64.7956 253.39 63.0131 252.984C61.7701 252.7 60.5561 252.29 59.3261 251.95L58.3587 251.691L58.3459 254.95C58.3297 259.566 58.3374 264.179 58.5583 268.794L58.6002 269.648C58.858 274.784 59.2603 280.028 60.9703 284.871C62.36 288.806 64.575 292.513 67.4715 295.38C68.9372 296.83 70.5129 297.959 72.4608 298.516C74.2693 299.034 76.1641 299.095 78.0233 298.956C86.9412 298.294 94.8794 293.131 102.626 288.855C115.297 281.863 127.969 274.874 140.652 267.908C140.31 267.659 139.986 267.37 139.692 267.047C137.992 265.174 137.094 262.612 136.506 260.13C135.879 257.487 135.503 254.656 135.459 251.929L135.744 248.742ZM151.882 270.607C151.994 270.543 152.123 270.623 152.129 270.758C152.168 271.79 151.633 272.809 151.233 273.74L151.19 273.838C150.704 274.991 150.172 276.128 149.622 277.246C148.522 279.482 147.379 281.693 146.186 283.873C143.787 288.26 141.121 292.461 137.97 296.281C137.259 297.143 136.089 296.037 136.545 295.108C138.747 290.631 141.314 286.403 143.957 282.211C145.28 280.112 146.601 278.012 147.937 275.923C148.495 275.051 149.059 274.183 149.639 273.328L149.989 272.816L151.882 270.607ZM283.439 186.051C272.306 186.41 261.189 187.184 250.111 188.396C239.808 189.524 229.543 191.025 219.335 192.896C217.204 193.288 215.075 193.693 212.948 194.117L211.673 194.372C209.546 194.802 206.947 194.979 205.053 196.191C203.057 197.467 202.517 200.135 201.853 202.337C201.072 204.924 200.311 207.519 199.57 210.121C196.628 220.45 193.942 230.868 191.546 241.356C190.356 246.562 189.3 251.797 188.188 257.021C187.2 261.664 186.11 266.253 184.971 270.848C185.111 270.731 185.283 270.643 185.491 270.596C191.147 269.314 196.921 268.756 202.663 268.047L203.218 267.979C209.156 267.234 215.095 266.495 221.038 265.782L260.381 261.067C262.702 260.788 265.188 260.751 267.446 260.087C271.285 258.959 272.185 254.384 272.829 250.74L272.849 250.63C274.791 239.622 276.337 228.519 278.147 217.483L283.439 186.051ZM185.886 258.052C184.358 257.945 182.268 256.453 181.108 256.56C181.717 257.648 181.992 258.89 181.642 260.214C180.666 263.902 176.252 261.994 174.127 260.867C172.384 259.944 170.702 258.813 168.772 258.38C166.586 257.89 165.106 258.817 163.259 259.884C161.743 260.761 160.091 261.391 158.391 261.717C157.488 261.891 156.63 261.909 155.775 261.841C155.723 261.886 155.664 261.927 155.598 261.965L155.145 262.218C157.193 262.318 159.28 262.992 161.186 263.608C163.161 264.247 165.1 265.018 167.029 265.806L168.927 266.583C173.608 268.494 178.453 270.308 183.519 270.291C183.883 270.29 184.181 270.398 184.416 270.574L185.886 258.052ZM177.34 246.497C178.849 246.299 180.242 246.511 181.447 247.558C182.902 248.821 183.879 250.915 185.97 251.052C186.579 251.092 186.721 252.005 186.115 252.197C184.559 252.687 183.299 251.79 182.239 250.625L181.526 249.831C180.478 248.675 179.512 247.781 177.734 247.85C175.829 247.924 173.923 248.392 172.031 248.631C169.888 248.902 167.746 249.131 165.596 249.33C165.497 249.339 165.479 249.172 165.573 249.148L167.981 248.509L177.34 246.497ZM175.883 239.921L176.132 239.895C178.324 239.668 180.328 239.659 182.284 240.915L182.66 241.157C184.424 242.301 186.345 243.647 187.448 245.498C187.628 245.801 187.33 246.157 187.029 246.081C184.908 245.537 183.358 243.88 181.574 242.638C179.572 241.246 177.505 241.475 175.223 241.691C173.014 241.901 170.805 242.189 168.617 242.581C166.561 242.95 164.499 243.531 162.423 243.717V243.713C162.185 243.713 162.051 243.333 162.292 243.203C164.399 242.082 166.84 241.551 169.133 241.039L175.883 239.921ZM242.451 216.836C242.239 215.757 243.486 215.256 244.063 216.112L244.186 216.294C245.433 218.115 247.239 220.402 247.146 222.719C248.243 222.745 249.381 223.455 249.808 224.51C250.006 224.998 250.072 225.577 250.029 226.176C251.026 226.258 252.114 226.956 252.723 227.634C253.733 228.76 253.813 230.352 253.087 231.667C251.507 234.536 248.056 235.579 245.141 235.812L245.037 235.82C242.027 236.042 237.69 235.982 235.625 233.229C233.634 230.574 235.835 228.425 238.092 227.257C237.504 226.685 237.2 225.866 237.486 225.002C237.988 223.482 239.761 222.895 240.763 221.838C241.985 220.551 242.792 218.784 242.47 216.937L242.451 216.836ZM244.105 219.171C243.773 220.709 242.958 222.116 241.822 223.23C241.388 223.656 240.912 224.036 240.407 224.362L240.347 224.399C239.899 224.666 238.797 225.169 238.882 225.771C238.97 226.389 240.764 227.356 241.253 227.357C241.363 227.357 241.426 227.541 241.314 227.596C240.427 228.013 239.653 228.192 238.786 227.751C238.208 228.38 237.645 229.033 237.088 229.679C236.103 230.822 236.44 232.029 237.604 232.881C239.474 234.249 242.317 234.215 244.5 234.116C246.697 234.016 249.044 233.494 250.76 231.934L250.835 231.865C251.767 230.981 252.619 229.484 251.19 228.632C250.632 228.299 250.028 228.319 249.497 228.157C249 229.194 248.194 230.026 247.21 230.186C246.415 230.315 245.868 229.251 246.591 228.741L246.754 228.634C247.662 228.017 248.436 227.065 248.416 225.826C248.401 224.966 247.275 223.88 246.541 224.689L246.507 224.727C245.893 225.465 244.811 224.534 245.215 223.717L245.235 223.68L244.105 219.171ZM100.848 176.411C100.845 176.226 101.089 176.158 101.174 176.316C102.6 178.99 103.345 182.268 104.105 185.214C104.9 188.3 105.542 191.416 106.119 194.556C107.288 200.913 107.91 207.235 107.953 213.715C107.958 214.64 106.544 214.887 106.406 213.938C105.488 207.635 104.608 201.325 103.682 195.024C103.217 191.855 102.675 188.697 102.156 185.537L100.848 176.411ZM114.963 181.068C114.858 180.699 115.361 180.575 115.49 180.913C118.351 188.399 119.32 196.883 117.483 204.781C117.202 205.989 115.542 205.466 115.754 204.273L114.963 181.068ZM151.871 174.415C151.856 174.14 152.193 174.097 152.32 174.286C153.674 176.322 154.238 179.049 156.616 180.101C157.804 180.627 159.14 180.535 160.189 181.422C160.891 182.016 161.429 182.953 160.902 183.851C160.732 184.142 160.257 184.288 160.027 183.973C159.69 183.513 159.512 182.962 159.055 182.617C158.41 182.132 157.541 182.101 156.803 181.873C155.846 181.577 155.004 181.06 154.314 180.293L151.871 174.415ZM174.521 140.456C174.661 140.38 174.795 140.429 174.884 140.558C175.012 140.741 174.997 140.919 174.84 141.045C175.049 141.5 175.295 142.639 175.33 142.805C175.474 143.478 175.625 144.146 175.784 144.813C176.104 146.16 176.386 147.518 176.706 148.865C177.046 150.293 177.451 151.707 177.903 153.099C177.932 153.189 177.964 153.281 177.997 153.375L178.049 153.516L178.061 153.494C178.153 153.34 178.344 153.448 178.321 153.61C178.3 153.76 178.272 153.908 178.247 154.056L178.295 154.189C178.59 155.035 178.792 155.927 178.251 156.674C178.049 156.953 177.826 157.118 177.549 157.167C177.102 158.731 176.545 160.265 175.946 161.739L175.772 162.17C174.892 164.32 173.955 166.444 172.553 168.274C171.025 170.273 168.922 171.639 167.59 173.83C166.971 174.848 166.539 175.919 166.19 177.071L166.058 177.507C165.809 178.321 165.523 179.109 164.807 179.587C164.578 179.739 164.236 179.69 164.051 179.483C162.583 177.827 164.12 174.734 165.006 173.131C166.238 170.901 168.02 169.474 169.803 167.792C171.726 165.979 172.953 163.553 174.14 161.164C174.867 159.699 175.569 158.204 176.307 156.734C175.536 156.007 175.288 154.562 175.027 153.559L175.003 153.468C174.571 151.861 174.227 150.212 174.011 148.554C173.802 146.961 173.715 145.392 173.77 143.79L173.786 143.381L174.521 140.456ZM177.391 148.038C177.221 147.788 177.502 147.506 177.736 147.558C179.158 147.872 180.55 148.789 181.826 149.532L181.963 149.61C182.982 150.196 184.008 150.914 184.542 152.052C185.124 153.288 185.077 154.713 184.997 156.057L184.989 156.183C184.892 157.795 184.877 159.47 184.557 161.052C184.393 161.863 183.704 162.091 183.116 161.899C182.416 164.256 180.448 165.992 179.012 167.852C177.18 170.224 177.524 173.425 177.715 176.28C177.794 177.436 176.444 177.765 175.749 177.148L174.148 175.731C173.881 175.494 173.614 175.257 173.349 175.019C173.122 174.814 172.896 174.609 172.673 174.401L172.338 174.086C172.19 173.945 171.536 173.167 171.345 173.135C170.883 173.057 169.784 174.357 169.408 174.764L169.36 174.815C168.651 175.555 168.012 176.352 167.416 177.196C167.306 177.352 167.092 177.222 167.171 177.043C167.704 175.824 168.326 174.658 169.062 173.567L169.211 173.35C169.702 172.645 170.36 171.401 171.226 171.193C172.284 170.939 173.34 172.07 174.109 172.697L174.158 172.735C174.523 173.028 174.885 173.326 175.246 173.626C175.209 171.5 175.461 169.352 176.491 167.519C177.216 166.227 178.305 165.27 179.236 164.159C180.273 162.923 180.814 161.404 181.751 160.116C181.872 159.95 182.039 159.861 182.219 159.832C182.256 158.797 182.398 157.753 182.508 156.728L182.54 156.422C182.653 155.309 182.917 153.95 182.406 152.908C181.923 151.923 180.815 151.229 179.994 150.561L179.325 150.007L177.391 148.038ZM131.222 136.272C130.794 136.537 130.394 136.865 130.031 137.276C128.887 138.567 128.07 140.177 127.275 141.724C126.847 142.558 126.434 143.4 126.002 144.232C125.814 144.593 125.621 144.951 125.426 145.308C125.335 145.473 125.067 145.8 124.934 146.002C125.082 146.222 125.235 146.44 125.39 146.655C125.45 146.736 129.551 151.499 130.981 153.362C133.169 156.217 135.126 159.232 136.798 162.459C138.437 165.619 139.684 168.966 141.202 172.187C141.962 173.8 142.81 175.402 143.89 176.798C143.932 176.852 143.977 176.903 144.019 176.958C144.432 175.769 145.489 174.497 146.008 173.766L146.057 173.698C147.235 172.005 148.478 170.364 149.749 168.751C150.91 167.277 152.1 165.836 153.319 164.418L153.778 163.888C154.627 162.91 155.706 161.446 156.949 160.748C156.816 160.495 156.662 160.244 156.485 159.997C155.32 158.375 153.673 157.197 152.048 156.135L150.995 155.451C147.022 152.872 143.112 150.172 139.664 146.82C137.839 145.046 136.04 143.187 134.506 141.119L133.964 140.387L131.222 136.272ZM137.851 134.995C135.99 135.162 133.982 135.122 132.263 135.768C133.791 137.307 135.243 138.97 136.736 140.536C136.868 139.477 137.14 138.431 137.369 137.398" fill="black"/>
<path fill-rule="evenodd" clip-rule="evenodd" d="M194.814 93.9445C194.313 89.2417 194.961 79.4115 195.005 78.8143C195.279 75.0387 193.623 60.1297 190.493 61.5034C185.24 57.0625 178.245 56.0818 171.704 55.6134C158.118 54.6402 143.663 56.8743 133.171 66.6407C127.983 71.7127 122.932 79.0895 123.338 86.7705C118.624 94.0516 111.979 104.038 117.852 112.55C119.849 115.27 123.022 116.281 125.53 118.341C130.574 122.687 133.739 128.924 138.832 133.245C152.324 146.194 175.233 148.9 188.49 134.171C198.74 123.503 197.082 107.544 195.279 93.9445C194.068 84.8016 195.792 103.119 194.814 93.9445Z" fill="#EDB98A"/>
<path fill-rule="evenodd" clip-rule="evenodd" d="M153.553 35.6695C157.187 34.8862 160.919 34.3989 164.629 34.5456L164.915 34.5575C167.707 34.6767 171.243 34.9403 173.678 36.6744C173.819 36.5243 174.044 36.4472 174.248 36.5513C177.143 38.027 180.327 39.0939 183.374 40.1541C186.407 41.2091 189.555 41.9054 192.734 42.1863C193.931 42.2919 194.954 43.6716 194.197 44.9091C194.017 45.2039 193.842 45.5018 193.666 45.8004C193.959 45.7679 194.251 45.7342 194.544 45.7027C195.505 45.5993 196.467 46.696 196.41 47.6965C196.374 48.3258 196.31 48.9476 196.217 49.5621C196.583 49.5538 196.948 49.6125 197.3 49.7714C199.082 50.5752 198.957 52.8425 198.823 54.5676C198.639 56.9615 197.801 59.4971 196.244 61.2888C197.407 62.5779 198.229 64.1175 198.72 65.946C199.076 67.2811 199.274 68.7034 199.176 70.0932L199.145 70.5093C199.024 72.0176 198.784 73.6876 197.768 74.7726C197.247 75.3321 196.604 75.536 195.991 75.4713C196.362 78.9472 196.6 82.4431 196.823 85.9265L196.928 87.5914C197.426 95.6421 197.801 103.745 197.703 111.81C197.611 119.346 196.218 126.661 191.89 132.779C187.949 138.352 182.29 142.459 175.889 144.02C172.438 144.864 168.917 144.924 165.425 144.386C163.732 144.125 162.028 143.725 160.423 143.093C158.644 142.392 157.367 141.36 156.17 139.813C155.604 139.08 155.876 137.519 157.003 137.665C158.707 137.886 160.263 138.152 161.897 138.691L162.131 138.77C163.759 139.326 165.444 139.741 167.145 139.918C170.63 140.279 174.169 139.916 177.507 138.786C182.942 136.946 187.623 132.846 190.624 127.695C194.185 121.588 194.588 114.657 194.536 107.635C194.482 99.9302 194.247 92.2211 193.864 84.524L193.798 83.2412C193.596 79.2804 193.401 75.3172 193.229 71.3539C193.175 70.1107 193.094 68.8575 192.947 67.6169C191.603 66.7764 190.4 65.6178 189.616 64.1881C188.04 64.8843 186.383 65.3866 184.858 65.7868C181.325 66.7148 177.658 66.9401 174.063 66.3589C173.093 66.7869 172.104 67.1631 171.1 67.4868C170.829 67.6153 170.557 67.7417 170.285 67.8655C167.865 68.9719 165.408 69.9093 162.853 70.5955L162.225 70.7627C160.88 71.1169 159.419 71.4657 157.988 71.5752C157.753 71.6721 157.499 71.7541 157.222 71.8262C155.918 72.1645 154.565 72.2713 153.229 72.152C151.929 72.0352 150.988 70.6303 151.705 69.315C152.229 68.3553 152.757 67.3981 153.29 66.4433C151.435 67.2688 149.519 67.955 147.587 68.5368C145.636 69.1236 143.657 69.6183 141.677 70.0734C140.618 70.3145 139.554 70.5284 138.497 70.7696C137.74 70.9411 136.579 71.0306 135.962 71.5627C135.28 72.147 135.087 73.5096 134.829 74.3499C134.489 75.4415 134.169 76.5379 133.879 77.6468C133.299 79.8598 132.825 82.1049 132.457 84.3726C132.088 86.6426 131.842 88.935 131.704 91.2349C131.567 93.5328 131.628 95.8444 131.407 98.1326C131.288 99.3455 130.069 99.969 129.168 99.1219C129.062 99.0219 128.956 98.922 128.85 98.8196L128.693 98.6667C127.922 97.9208 127.175 97.1303 126.557 96.2397C126.446 96.0762 126.339 95.9044 126.239 95.7303C126.223 95.7303 126.208 95.7256 126.192 95.7127L126.022 95.575C124.138 94.0786 120.993 92.1269 119.158 94.6139C118.573 95.4056 118.273 96.415 118.025 97.3879L117.589 99.129C117.306 100.267 117.041 101.409 116.886 102.572C116.534 105.178 116.711 108.182 118.389 110.271C119.06 111.106 119.984 111.703 121.015 111.859C121.59 111.944 122.158 111.839 122.729 111.763C123.308 111.685 123.867 111.81 124.446 111.75C125.368 111.653 125.771 112.832 125.427 113.572C125.24 113.971 125.021 114.313 124.772 114.605C124.972 114.788 125.164 114.987 125.347 115.197C125.892 115.382 126.381 115.782 126.746 116.313C127.042 116.74 127.196 117.205 127.221 117.695C127.254 117.816 127.282 117.941 127.307 118.068L127.807 118.934C127.917 119.123 128.026 119.311 128.136 119.495C129.407 121.633 130.817 123.443 132.571 125.149C134.258 126.79 136.09 128.26 137.675 130.02L137.862 130.229C139.34 131.892 140.898 133.906 140.32 136.325C140.171 136.946 139.358 137.395 138.828 136.975C137.121 135.622 136.262 133.478 134.814 131.837C133.325 130.147 131.674 128.628 130.18 126.942C128.767 125.35 127.652 123.548 126.811 121.563C126.476 121.959 125.988 122.24 125.31 122.349C124.146 122.536 123.061 121.807 122.554 120.73C122.228 120.885 121.895 121.025 121.56 121.134C119.795 121.71 118.685 119.614 119.351 118.066C119.707 117.235 120.151 116.514 120.703 115.907C118.978 115.653 117.223 114.701 116.089 113.513C113.245 110.526 112.854 106.039 113.494 102.048C113.834 99.9325 114.42 97.7914 115.182 95.8044C115.314 95.4597 115.457 95.1115 115.612 94.768C115.526 94.7657 115.438 94.7257 115.382 94.6492C114.867 93.8975 114.241 93.2834 113.859 92.4434C113.508 91.6728 113.117 90.8918 112.84 90.0887C112.27 88.4452 111.99 86.5903 111.804 84.8524C111.42 81.2943 111.569 77.7587 112.079 74.2231C112.947 68.2011 115.044 62.4383 118.133 57.3814C117.965 57.2871 117.804 57.1731 117.653 57.0384L117.579 56.9692L117.459 56.8528C116.577 56.0008 116.653 54.4038 117.459 53.5407L117.713 53.2684C118.035 52.9265 118.313 52.6558 118.833 52.2836C118.91 52.2287 118.988 52.1769 119.068 52.1287C118.795 51.5912 118.701 50.9626 118.891 50.2691C119.552 47.8534 122.806 47.939 124.869 48.9925C127.15 46.8171 129.681 44.9287 132.424 43.3996C138.956 39.7595 146.342 37.2209 153.553 35.6695ZM119.789 99.2961C121.009 98.8702 122.629 99.7631 123.725 100.3C125.115 100.982 126.298 101.989 127.443 103.052C128.013 103.584 128.115 104.455 127.973 105.198C127.96 105.272 127.945 105.35 127.929 105.428C127.777 106.22 126.949 106.844 126.216 106.822C124.681 106.777 123.951 105.363 123.082 104.164C122.98 104.358 122.852 104.537 122.694 104.671L122.587 104.761C122.226 105.053 121.829 105.288 121.353 105.265C121.015 105.248 120.692 105.156 120.394 104.99C119.649 104.569 119.321 103.539 119.523 102.702C119.649 102.175 119.938 101.762 120.315 101.476L120.174 101.374C119.873 101.15 119.599 100.914 119.385 100.567L119.337 100.484H119.356C119.123 100.056 119.274 99.4749 119.789 99.2961Z" fill="black"/>
<path fill-rule="evenodd" clip-rule="evenodd" d="M171.699 124.508C170.131 123.826 168.732 122.688 167.708 121.235C167.353 120.73 167.261 120.198 167.335 119.709C167.419 119.161 167.724 118.664 168.139 118.331C168.555 117.995 169.076 117.831 169.58 117.915C170.018 117.988 170.453 118.244 170.799 118.773L170.871 118.879C171.479 119.756 172.271 120.475 173.174 120.939C174.044 121.386 175.018 121.595 176.025 121.474C177.943 121.242 179.265 120.136 180.671 118.635C180.845 118.446 181.019 118.249 181.194 118.052C181.305 117.871 181.458 117.755 181.629 117.694C181.818 117.627 182.032 117.631 182.229 117.704C182.418 117.774 182.587 117.907 182.7 118.085C182.808 118.254 182.868 118.462 182.85 118.701C182.72 120.258 181.957 121.647 180.873 122.737C179.668 123.948 178.072 124.787 176.569 125.08C174.914 125.404 173.227 125.171 171.699 124.508ZM177.351 100.5C179.112 101.641 181.796 104.302 179.901 107.131C177.671 109.626 174.459 106.765 172.877 105.472C171.409 104.47 169.76 107.048 171.122 108.219C182.558 117.244 187.199 100.798 178.242 99.1573C177.256 98.9773 176.889 100.147 177.351 100.5ZM156.858 90.0019C157.052 87.4269 160.731 86.8422 161.098 89.3903C161.424 91.6729 161.039 93.7693 160.074 95.8245C159.153 97.7879 156.837 96.8715 156.661 95.0845C156.426 92.6881 156.736 91.6035 156.858 90.0019ZM184.866 88.8619C185.378 88.1458 186.119 87.657 187.007 87.9333C189.778 88.7969 188.961 92.9916 187.988 95.0339C187.458 96.1433 185.749 96.4244 184.976 95.448C183.716 93.8551 183.113 90.6757 184.714 89.1073C184.758 89.0263 184.806 88.9445 184.866 88.8619ZM160.035 78.7347L160.474 78.6531C161.829 78.4033 163.512 78.1633 164.471 79.3242C164.98 79.9398 165.154 81.0841 164.471 81.6734C163.269 82.7102 161.94 82.3083 160.5 82.3962C159.313 82.4688 158.173 82.6781 157.03 83.0264C154.521 83.7905 152.477 85.1854 150.335 86.717C150.055 86.9179 149.768 86.5347 149.901 86.2545C151.138 83.6729 153.534 81.5522 155.935 80.2596C157.217 79.5696 158.618 78.9973 160.035 78.7347ZM182.338 77.5783L182.673 77.6513C186.321 78.4641 191.06 80.0875 192.787 83.9065C192.853 84.4465 192.784 84.5622 192.727 84.6377L192.709 84.6629C192.662 84.7275 192.625 84.8166 192.405 84.8901C192.344 84.8746 192.282 84.8582 192.221 84.8408C191.429 84.6196 190.802 84.3149 190.195 83.9988L189.537 83.6534C188.774 83.2548 188.005 82.8705 187.19 82.5869C185.449 81.9817 183.659 81.5554 181.84 81.3278C181.446 81.2785 181.066 81.1367 180.767 80.8938C180.483 80.6632 180.266 80.3439 180.168 79.9195C180.038 79.3702 180.076 78.9543 180.352 78.4588C180.56 78.0867 180.858 77.8289 181.199 77.6807C181.548 77.5297 181.944 77.4942 182.338 77.5783Z" fill="black"/>
<path fill-rule="evenodd" clip-rule="evenodd" d="M202.143 94.0139C199.918 110.049 184.393 111.823 181.634 95.9045C182.077 95.6974 182.396 95.2904 182.33 94.501C182.313 91.0318 183.323 87.3654 186.259 85.4363C189.294 83.4457 192.845 83.2483 196.356 83.2985C203.056 83.1284 202.914 89.0974 202.143 94.0139ZM179.205 87.041C177.101 86.9466 174.441 87.0256 172.558 88.3912C172.04 86.9048 170.694 85.3178 169.335 84.4692C174.388 84.6268 179.589 84.0967 184.68 83.6852C183.461 84.5707 182.328 85.9009 181.591 87.4387C180.907 87.05 179.928 87.0863 179.205 87.041ZM169.935 95.7151C164.105 117.107 149.552 107.783 147.965 105.042C145.103 100.504 144.564 89.4765 147.057 86.5279C150.626 83.8615 155.677 84.5477 159.893 84.4823C167.638 84.5937 173.139 87.0632 169.935 95.7151ZM209.027 85.8758C207.443 85.655 205.75 85.6105 204.277 86.3539C203.823 84.2994 202.4 82.5818 200.792 81.826C200.598 81.5659 200.627 81.4261 199.962 81.4652C195.881 80.1578 191.314 80.8495 187.392 82.1902C181.199 82.7462 174.701 83.1845 168.455 83.9506C162.604 81.1499 144.946 80.7394 143.85 87.6423C142.469 87.4223 140.119 86.2644 138.958 87.835C130.451 86.2977 121.66 88.4343 113.115 89.3858C110.964 89.808 109.857 94.3575 112.298 94.2951C113.671 93.8987 112.256 91.4623 114.104 91.2788C122.348 90.3194 130.412 88.9579 138.741 88.7985C138.45 90.3314 144.249 90.431 144.334 89.536C144.347 89.5427 144.36 89.5472 144.373 89.5531C142.94 95.2445 144.233 103.435 146.822 106.964C150.45 111.585 159.559 112.911 163.598 109.938C168.807 107.193 174.226 93.4187 172.705 88.8423C175.467 87.9089 178.199 88.1891 181.065 88.6645C180.409 90.6409 179.277 95.5056 180.906 95.928C180.607 105.588 188.855 111.614 196.458 107.652C203.039 104.359 205.34 93.9375 204.535 87.6113C205.355 89.2985 212.234 87.4616 209.027 85.8758Z" fill="black"/>
</g>
</g>
<defs>
<clipPath id="clip0">
<rect width="272.727" height="381.161" fill="white" transform="translate(13.6362 -26.3965)"/>
</clipPath>
</defs>
</svg>
